<svg width="953" height="161" viewBox="0 0 953 161" fill="none" xmlns="http://www.w3.org/2000/svg">
<rect width="158.67" height="158.67" transform="matrix(-1 -8.74228e-08 -8.74228e-08 1 793.356 1.33447)" fill="#0050A7"/>
<path d="M793.69 0.999924L635.02 0.999954L793.69 159.67L793.69 0.999924Z" fill="#005EC5"/>
<rect width="61.7083" height="61.7083" transform="matrix(-0.707107 -0.707107 -0.707107 0.707107 757.655 80.6694)" fill="white"/>
<rect width="158.67" height="158.67" transform="matrix(-1 -8.74228e-08 -8.74228e-08 1 634.685 1.33398)" fill="#4CA0FD"/>
<rect width="79.3352" height="79.3352" transform="matrix(-1 -8.74228e-08 -8.74228e-08 1 555.35 1.33398)" fill="#0050A7"/>
<rect width="79.3352" height="79.3352" transform="matrix(-1 -8.74228e-08 -8.74228e-08 1 634.686 80.6694)" fill="#A0CDFF"/>
<path d="M634.685 1.33398L555.349 1.33398L555.349 80.6692C599.165 80.6692 634.685 45.1496 634.685 1.33398Z" fill="white"/>
<path d="M555.35 80.6694L476.014 80.6694L476.014 160.005C519.83 160.005 555.35 124.485 555.35 80.6694Z" fill="#0060C8"/>
<rect width="158.67" height="158.67" transform="matrix(-1 -8.74228e-08 -8.74228e-08 1 952.026 1.33398)" fill="#0050A7"/>
<path d="M793.356 80.6692C793.356 96.3602 798.009 111.699 806.726 124.746C815.444 137.792 827.834 147.961 842.331 153.965C856.827 159.97 872.779 161.541 888.169 158.48C903.558 155.419 917.694 147.863 928.79 136.768C939.885 125.672 947.441 111.536 950.502 96.1468C953.563 80.7572 951.992 64.8056 945.987 50.3089C939.983 35.8123 929.814 23.4219 916.767 14.7044C903.721 5.98691 888.382 1.33398 872.691 1.33398L872.691 80.6692L793.356 80.6692Z" fill="#3B98FF"/>
<path d="M834.611 80.6693C834.611 88.201 836.845 95.5635 841.029 101.826C845.213 108.088 851.161 112.969 858.119 115.851C865.077 118.734 872.734 119.488 880.121 118.018C887.508 116.549 894.294 112.922 899.619 107.597C904.945 102.271 908.572 95.4855 910.041 88.0985C911.511 80.7115 910.756 73.0547 907.874 66.0964C904.992 59.138 900.111 53.1906 893.849 49.0062C887.586 44.8218 880.224 42.5884 872.692 42.5884L872.692 80.6693L834.611 80.6693Z" fill="#0060C8"/>
<rect width="79.3352" height="79.3352" transform="matrix(-1 -8.74228e-08 -8.74228e-08 1 872.691 1.33398)" fill="#A0CDFF"/>
<path d="M834.611 80.6693C834.611 75.6684 835.596 70.7165 837.51 66.0964C839.424 61.4762 842.229 57.2782 845.765 53.742C849.301 50.2059 853.499 47.4009 858.119 45.4871C862.739 43.5734 867.691 42.5884 872.692 42.5884L872.692 80.6693L834.611 80.6693Z" fill="white"/>
<rect width="158.67" height="158.67" transform="matrix(-1 -8.74228e-08 -8.74228e-08 1 317.343 1.33789)" fill="#0050A7"/>
<path d="M317.676 1.00334L159.006 1.00337L317.676 159.674L317.676 1.00334Z" fill="#005EC5"/>
<rect width="61.7083" height="61.7083" transform="matrix(-0.707107 -0.707107 -0.707107 0.707107 281.641 80.6729)" fill="white"/>
<rect width="158.67" height="158.67" transform="matrix(-1 -8.74228e-08 -8.74228e-08 1 158.671 1.33789)" fill="#4CA0FD"/>
<rect width="79.3352" height="79.3352" transform="matrix(-1 -8.74228e-08 -8.74228e-08 1 79.3359 1.33789)" fill="#0050A7"/>
<rect width="79.3352" height="79.3352" transform="matrix(-1 -8.74228e-08 -8.74228e-08 1 158.672 80.6733)" fill="#A0CDFF"/>
<path d="M158.671 1.33789L79.3357 1.33788L79.3356 80.6731C123.151 80.6731 158.671 45.1535 158.671 1.33789Z" fill="white"/>
<path d="M79.3359 80.6733L0.000694275 80.6733L0.000687339 160.009C43.8163 160.009 79.3359 124.489 79.3359 80.6733Z" fill="#0060C8"/>
<rect width="158.67" height="158.67" transform="matrix(-1 -8.74228e-08 -8.74228e-08 1 476.013 1.33789)" fill="#0050A7"/>
<path d="M317.342 80.6731C317.342 96.3642 321.995 111.703 330.713 124.749C339.43 137.796 351.821 147.965 366.317 153.969C380.814 159.974 396.765 161.545 412.155 158.484C427.545 155.423 441.681 147.867 452.776 136.772C463.871 125.676 471.427 111.54 474.488 96.1507C477.549 80.7611 475.978 64.8095 469.974 50.3129C463.969 35.8162 453.8 23.4258 440.754 14.7083C427.707 5.99082 412.368 1.33788 396.677 1.33788L396.677 80.6731L317.342 80.6731Z" fill="#3B98FF"/>
<path d="M358.597 80.6732C358.597 88.2049 360.831 95.5674 365.015 101.83C369.2 108.092 375.147 112.973 382.105 115.855C389.064 118.738 396.721 119.492 404.108 118.022C411.495 116.553 418.28 112.926 423.606 107.6C428.931 102.275 432.558 95.4894 434.028 88.1024C435.497 80.7154 434.743 73.0586 431.861 66.1003C428.978 59.1419 424.097 53.1945 417.835 49.0101C411.573 44.8257 404.21 42.5923 396.678 42.5923L396.678 80.6732L358.597 80.6732Z" fill="#0060C8"/>
<rect width="79.3352" height="79.3352" transform="matrix(-1 -8.74228e-08 -8.74228e-08 1 396.678 1.33789)" fill="#A0CDFF"/>
<path d="M358.597 80.6732C358.597 75.6723 359.582 70.7204 361.496 66.1003C363.41 61.4801 366.215 57.2821 369.751 53.7459C373.287 50.2098 377.485 47.4048 382.105 45.491C386.726 43.5773 391.678 42.5923 396.678 42.5923L396.678 80.6732L358.597 80.6732Z" fill="white"/>
<rect width="158.67" height="158.67" transform="matrix(-1 -8.74228e-08 -8.74228e-08 1 477.003 1.3374)" fill="#0C45BF"/>
<path d="M397.669 80.6728L318.334 160.008L477.004 160.008L397.669 80.6728Z" fill="white"/>
<path d="M397.669 80.6729L477.004 1.33761L318.334 1.33761L397.669 80.6729Z" fill="#005EC5"/>
<rect width="158.67" height="158.67" transform="matrix(-1 -8.74228e-08 -8.74228e-08 1 318.333 1.3374)" fill="#A0CDFF"/>
<circle r="17.8504" transform="matrix(-1 -8.74228e-08 -8.74228e-08 1 269.542 50.1288)" fill="#3B98FF"/>
<circle r="17.8504" transform="matrix(-1 -8.74228e-08 -8.74228e-08 1 208.454 50.1288)" fill="white"/>
<circle r="17.8504" transform="matrix(-1 -8.74228e-08 -8.74228e-08 1 269.542 111.217)" fill="white"/>
<circle r="17.8504" transform="matrix(-1 -8.74228e-08 -8.74228e-08 1 208.454 111.217)" fill="#0060C8"/>
<rect width="158.67" height="158.67" transform="matrix(-1 -8.74228e-08 -8.74228e-08 1 159.662 1.3374)" fill="#488AD1"/>
<path fill-rule="evenodd" clip-rule="evenodd" d="M1.00154 160.008L159.663 160.008L159.663 1.3374C159.663 1.3374 159.662 1.3374 159.662 1.3374C72.0312 1.33739 0.991952 71.5959 0.991945 158.264C0.991945 158.846 0.995149 159.427 1.00154 160.008Z" fill="white"/>
<path fill-rule="evenodd" clip-rule="evenodd" d="M80.34 160.008L159.663 160.008L159.663 79.2808C115.847 79.2811 80.3281 114.801 80.328 158.616C80.328 159.081 80.332 159.545 80.34 160.008Z" fill="#0060C8"/>
<g style="mix-blend-mode:hue">
<path d="M793.356 1.32593L634.686 1.32592L634.686 159.996L793.356 159.996L793.356 1.32593Z" fill="#FF6935"/>
<path d="M793.69 0.991655L635.019 0.991687L793.69 159.662L793.69 0.991655Z" fill="#FF6935"/>
<path d="M757.654 80.6612L714.02 37.0268L670.386 80.6611L714.02 124.295L757.654 80.6612Z" fill="#FF6935"/>
<path d="M634.684 1.32585L476.014 1.32584L476.014 159.996L634.684 159.996L634.684 1.32585Z" fill="#FF6935"/>
<path d="M555.35 1.32579L476.014 1.32584L476.014 80.661L555.35 80.661L555.35 1.32579Z" fill="#FF6935"/>
<path d="M634.685 80.661L555.35 80.661L555.35 159.996L634.686 159.996L634.685 80.661Z" fill="#FF6935"/>
<path d="M634.684 1.32585L555.35 1.32579L555.35 80.661C599.165 80.661 634.684 45.1415 634.684 1.32585Z" fill="#FF6935"/>
<path d="M555.35 80.661L476.014 80.661L476.014 159.996C519.83 159.996 555.35 124.477 555.35 80.661Z" fill="#FF6935"/>
<path d="M952.026 1.32582L793.356 1.32593L793.356 159.996L952.026 159.996L952.026 1.32582Z" fill="#FF6935"/>
<path d="M793.356 80.6611C793.356 96.3521 798.009 111.691 806.726 124.737C815.444 137.784 827.834 147.953 842.331 153.957C856.827 159.962 872.779 161.533 888.169 158.472C903.558 155.411 917.694 147.855 928.79 136.76C939.885 125.664 947.441 111.528 950.502 96.1386C953.563 80.7491 951.992 64.7974 945.987 50.3008C939.983 35.8042 929.814 23.4137 916.767 14.6962C903.721 5.97876 888.382 1.32582 872.691 1.32581L872.691 80.6611L793.356 80.6611Z" fill="#FF6935"/>
<path d="M834.611 80.6609C834.611 88.1926 836.845 95.5552 841.029 101.818C845.213 108.08 851.161 112.961 858.119 115.843C865.078 118.725 872.734 119.479 880.121 118.01C887.508 116.541 894.294 112.914 899.619 107.588C904.945 102.262 908.572 95.4771 910.041 88.0901C911.511 80.7032 910.757 73.0464 907.874 66.088C904.992 59.1296 900.111 53.1822 893.849 48.9978C887.586 44.8134 880.224 42.58 872.692 42.58L872.692 80.6609L834.611 80.6609Z" fill="#FF6935"/>
<path d="M872.691 1.32581L793.356 1.32593L793.356 80.6611L872.691 80.6611L872.691 1.32581Z" fill="#FF6935"/>
<path d="M834.611 80.6609C834.611 75.6601 835.596 70.7082 837.51 66.088C839.424 61.4678 842.229 57.2698 845.765 53.7337C849.301 50.1975 853.499 47.3925 858.119 45.4788C862.739 43.565 867.691 42.58 872.692 42.58L872.692 80.6609L834.611 80.6609Z" fill="#FF6935"/>
<path d="M317.343 1.32927L158.672 1.32926L158.672 160L317.343 160L317.343 1.32927Z" fill="#FF6935"/>
<path d="M317.676 0.995001L159.006 0.995033L317.676 159.665L317.676 0.995001Z" fill="#FF6935"/>
<path d="M281.641 80.6645L238.007 37.0301L194.372 80.6645L238.007 124.299L281.641 80.6645Z" fill="#FF6935"/>
<path d="M158.671 1.32946L0.000258012 1.32945L0.000244141 160L158.671 160L158.671 1.32946Z" fill="#FF6935"/>
<path d="M79.3356 1.32938L0.000258012 1.32945L0.000434182 80.6646L79.3356 80.6646L79.3356 1.32938Z" fill="#FF6935"/>
<path d="M158.672 80.6646L79.3356 80.6646L79.3364 160L158.672 160L158.672 80.6646Z" fill="#FF6935"/>
<path d="M158.671 1.32946L79.3356 1.32938L79.3356 80.6646C123.151 80.6646 158.671 45.1451 158.671 1.32946Z" fill="#FF6935"/>
<path d="M79.3356 80.6646L0.000434182 80.6646L0.000244141 160C43.8159 160 79.3356 124.48 79.3356 80.6646Z" fill="#FF6935"/>
<path d="M476.013 1.32941L317.343 1.32927L317.343 160L476.013 160L476.013 1.32941Z" fill="#FF6935"/>
<path d="M317.342 80.6646C317.342 96.3557 321.995 111.694 330.713 124.741C339.43 137.788 351.82 147.956 366.317 153.961C380.814 159.966 396.765 161.537 412.155 158.475C427.544 155.414 441.681 147.858 452.776 136.763C463.871 125.668 471.427 111.532 474.488 96.1422C477.549 80.7527 475.978 64.801 469.974 50.3044C463.969 35.8077 453.8 23.4173 440.754 14.6998C427.707 5.98235 412.368 1.32941 396.677 1.3294L396.677 80.6646L317.342 80.6646Z" fill="#FF6935"/>
<path d="M358.598 80.6645C358.598 88.1962 360.831 95.5588 365.015 101.821C369.2 108.084 375.147 112.964 382.106 115.847C389.064 118.729 396.721 119.483 404.108 118.014C411.495 116.544 418.28 112.918 423.606 107.592C428.931 102.266 432.558 95.4807 434.028 88.0937C435.497 80.7068 434.743 73.05 431.861 66.0916C428.978 59.1332 424.097 53.1858 417.835 49.0014C411.573 44.817 404.21 42.5836 396.678 42.5836L396.678 80.6645L358.598 80.6645Z" fill="#FF6935"/>
<path d="M396.677 1.3294L317.343 1.32927L317.342 80.6646L396.677 80.6646L396.677 1.3294Z" fill="#FF6935"/>
<path d="M358.598 80.6645C358.598 75.6637 359.583 70.7118 361.496 66.0916C363.41 61.4714 366.215 57.2734 369.751 53.7372C373.287 50.2011 377.485 47.3961 382.106 45.4823C386.726 43.5686 391.678 42.5836 396.678 42.5836L396.678 80.6645L358.598 80.6645Z" fill="#FF6935"/>
</g>
</svg>
