<svg width="1920" height="961" viewBox="0 0 1920 961" fill="none" xmlns="http://www.w3.org/2000/svg">
<g opacity="0.05">
<rect width="159.999" height="159.999" transform="matrix(1 0 0 -1 320 160.003)" fill="#0050A7"/>
<rect width="159.999" height="159.999" transform="matrix(1 0 0 -1 160 160.003)" fill="#A0CDFF"/>
<path d="M240 80.003C240 35.8205 204.183 0.0034211 160 0.00342496L160 160.003C204.183 160.003 240 124.186 240 80.003Z" fill="#0060C8"/>
<path d="M240 80.0031C240 124.186 275.817 160.003 320 160.003L320 0.00346375C275.817 0.00346375 240 35.8205 240 80.0031Z" fill="white"/>
<rect width="159.999" height="159.999" transform="matrix(1 0 0 -1 0 160.002)" fill="#0060C8"/>
<rect width="79.9996" height="79.9996" transform="matrix(1 0 0 -1 79.999 160.003)" fill="white"/>
<rect x="139.198" y="139.203" width="38.3998" height="38.3998" rx="19.1999" transform="rotate(180 139.198 139.203)" fill="#0050A7"/>
<path d="M0 160.002L79.9996 160.002L79.9996 80.0024C79.9996 35.8198 44.1826 0.00273132 0 0.00273132L0 160.002Z" fill="#3B98FF"/>
<path d="M399.999 80.0032L479.999 0.00356293L320 0.00356293L399.999 80.0032Z" fill="#9DCCFF"/>
<path d="M399.999 160.003L479.999 80.0031L320 80.0031L399.999 160.003Z" fill="white"/>
<rect width="159.999" height="159.999" transform="matrix(1 0 0 -1 159.999 320.002)" fill="#0050A7"/>
<path d="M159.663 320.339L319.662 320.339L159.663 160.34L159.663 320.339Z" fill="#005EC5"/>
<rect width="62.225" height="62.225" transform="matrix(0.707107 0.707107 0.707107 -0.707107 196 240.002)" fill="white"/>
<rect width="159.999" height="159.999" transform="matrix(1 0 0 -1 320 320.002)" fill="#4CA0FD"/>
<rect width="79.9996" height="79.9996" transform="matrix(1 0 0 -1 399.999 320.002)" fill="#0050A7"/>
<rect width="79.9996" height="79.9996" transform="matrix(1 0 0 -1 319.999 240.002)" fill="#A0CDFF"/>
<path d="M320 320.002L399.999 320.002L399.999 240.002C355.817 240.002 320 275.819 320 320.002Z" fill="white"/>
<path d="M399.999 240.002L479.998 240.002L479.998 160.003C435.816 160.003 399.999 195.82 399.999 240.002Z" fill="#0060C8"/>
<rect width="159.999" height="159.999" transform="matrix(1 0 0 -1 0 320.002)" fill="#0050A7"/>
<path d="M159.999 240.002C159.999 224.18 155.307 208.713 146.517 195.557C137.726 182.401 125.232 172.147 110.614 166.092C95.9961 160.037 79.9109 158.453 64.3925 161.54C48.8741 164.627 34.6195 172.246 23.4313 183.434C12.2432 194.622 4.62397 208.877 1.53717 224.395C-1.54963 239.914 0.0346267 255.999 6.08961 270.617C12.1446 285.235 22.3983 297.729 35.5542 306.52C48.7101 315.31 64.1772 320.002 79.9996 320.002L79.9996 240.002L159.999 240.002Z" fill="#3B98FF"/>
<path d="M118.398 240.002C118.398 232.408 116.146 224.983 111.927 218.669C107.707 212.354 101.71 207.432 94.6934 204.526C87.6768 201.619 79.9558 200.859 72.507 202.34C65.0582 203.822 58.216 207.479 52.8457 212.85C47.4754 218.22 43.8181 225.062 42.3365 232.511C40.8548 239.96 41.6153 247.681 44.5216 254.697C47.428 261.714 52.3498 267.711 58.6647 271.931C64.9795 276.15 72.4037 278.402 79.9984 278.402L79.9984 240.002L118.398 240.002Z" fill="#0060C8"/>
<rect width="79.9996" height="79.9996" transform="matrix(1 0 0 -1 79.999 320.002)" fill="#A0CDFF"/>
<path d="M118.398 240.002C118.398 245.045 117.405 250.039 115.475 254.697C113.545 259.356 110.717 263.589 107.151 267.155C103.585 270.721 99.3523 273.549 94.6934 275.479C90.0345 277.409 85.0412 278.402 79.9984 278.402L79.9984 240.002L118.398 240.002Z" fill="white"/>
<rect width="159.999" height="159.999" transform="matrix(1 0 0 -1 800 160)" fill="#0050A7"/>
<rect width="159.999" height="159.999" transform="matrix(1 0 0 -1 640 160)" fill="#A0CDFF"/>
<path d="M720 80.0001C720 35.8175 684.183 0.000491412 640 0.000495275L640 160C684.183 160 720 124.183 720 80.0001Z" fill="#0060C8"/>
<path d="M720 80.0001C720 124.183 755.817 160 800 160L800 0.000534058C755.817 0.000534058 720 35.8176 720 80.0001Z" fill="white"/>
<rect width="159.999" height="159.999" transform="matrix(1 0 0 -1 480 160)" fill="#0060C8"/>
<rect width="79.9996" height="79.9996" transform="matrix(1 0 0 -1 559.999 160)" fill="white"/>
<rect x="619.198" y="139.2" width="38.3998" height="38.3998" rx="19.1999" transform="rotate(180 619.198 139.2)" fill="#0050A7"/>
<path d="M480 160L560 160L560 80.0004C560 35.8178 524.183 0.000778198 480 0.000778198L480 160Z" fill="#3B98FF"/>
<path d="M879.999 80.0002L959.999 0.00063324L800 0.00063324L879.999 80.0002Z" fill="#9DCCFF"/>
<path d="M879.999 160L959.999 80.0001L800 80.0001L879.999 160Z" fill="white"/>
<rect width="159.999" height="159.999" transform="matrix(1 0 0 -1 639.999 319.999)" fill="#0050A7"/>
<path d="M639.662 320.336L799.661 320.336L639.662 160.337L639.662 320.336Z" fill="#005EC5"/>
<rect width="62.225" height="62.225" transform="matrix(0.707107 0.707107 0.707107 -0.707107 675.999 239.999)" fill="white"/>
<rect width="159.999" height="159.999" transform="matrix(1 0 0 -1 800 319.999)" fill="#4CA0FD"/>
<rect width="79.9996" height="79.9996" transform="matrix(1 0 0 -1 879.999 319.999)" fill="#0050A7"/>
<rect width="79.9996" height="79.9996" transform="matrix(1 0 0 -1 799.999 239.999)" fill="#A0CDFF"/>
<path d="M800 319.999L879.999 319.999L879.999 239.999C835.817 239.999 800 275.816 800 319.999Z" fill="white"/>
<path d="M879.999 239.999L959.999 239.999L959.999 160C915.816 160 879.999 195.817 879.999 239.999Z" fill="#0060C8"/>
<rect width="159.999" height="159.999" transform="matrix(1 0 0 -1 480 319.999)" fill="#0050A7"/>
<path d="M639.999 239.999C639.999 224.177 635.307 208.71 626.517 195.554C617.726 182.398 605.232 172.144 590.614 166.089C575.996 160.034 559.911 158.45 544.392 161.537C528.874 164.624 514.619 172.243 503.431 183.431C492.243 194.619 484.624 208.874 481.537 224.392C478.45 239.911 480.035 255.996 486.09 270.614C492.145 285.232 502.398 297.726 515.554 306.517C528.71 315.307 544.177 319.999 560 319.999L560 239.999L639.999 239.999Z" fill="#3B98FF"/>
<path d="M598.398 239.999C598.398 232.405 596.146 224.981 591.927 218.666C587.707 212.351 581.71 207.429 574.693 204.523C567.677 201.616 559.956 200.856 552.507 202.338C545.058 203.819 538.216 207.476 532.846 212.847C527.475 218.217 523.818 225.059 522.336 232.508C520.855 239.957 521.615 247.678 524.522 254.694C527.428 261.711 532.35 267.708 538.665 271.928C544.979 276.147 552.404 278.399 559.998 278.399L559.998 239.999L598.398 239.999Z" fill="#0060C8"/>
<rect width="79.9996" height="79.9996" transform="matrix(1 0 0 -1 559.999 319.999)" fill="#A0CDFF"/>
<path d="M598.398 239.999C598.398 245.042 597.405 250.036 595.475 254.694C593.545 259.353 590.717 263.586 587.151 267.152C583.585 270.718 579.352 273.547 574.693 275.476C570.035 277.406 565.041 278.399 559.998 278.399L559.998 239.999L598.398 239.999Z" fill="white"/>
<rect width="159.999" height="159.999" transform="matrix(1 0 0 -1 1280 160)" fill="#0050A7"/>
<rect width="159.999" height="159.999" transform="matrix(1 0 0 -1 1120 160)" fill="#A0CDFF"/>
<path d="M1200 80.0001C1200 35.8175 1164.18 0.000491412 1120 0.000495275L1120 160C1164.18 160 1200 124.183 1200 80.0001Z" fill="#0060C8"/>
<path d="M1200 80.0001C1200 124.183 1235.82 160 1280 160L1280 0.000534058C1235.82 0.000534058 1200 35.8176 1200 80.0001Z" fill="white"/>
<rect width="159.999" height="159.999" transform="matrix(1 0 0 -1 960 160)" fill="#0060C8"/>
<rect width="79.9996" height="79.9996" transform="matrix(1 0 0 -1 1040 160)" fill="white"/>
<rect x="1099.2" y="139.2" width="38.3998" height="38.3998" rx="19.1999" transform="rotate(180 1099.2 139.2)" fill="#0050A7"/>
<path d="M960 160L1040 160L1040 80.0004C1040 35.8178 1004.18 0.000778198 960 0.000778198L960 160Z" fill="#3B98FF"/>
<path d="M1360 80.0002L1440 0.00063324L1280 0.00063324L1360 80.0002Z" fill="#9DCCFF"/>
<path d="M1360 160L1440 80.0001L1280 80.0001L1360 160Z" fill="white"/>
<rect width="159.999" height="159.999" transform="matrix(1 0 0 -1 1120 319.999)" fill="#0050A7"/>
<path d="M1119.66 320.336L1279.66 320.336L1119.66 160.337L1119.66 320.336Z" fill="#005EC5"/>
<rect width="62.225" height="62.225" transform="matrix(0.707107 0.707107 0.707107 -0.707107 1156 239.999)" fill="white"/>
<rect width="159.999" height="159.999" transform="matrix(1 0 0 -1 1280 319.999)" fill="#4CA0FD"/>
<rect width="79.9996" height="79.9996" transform="matrix(1 0 0 -1 1360 319.999)" fill="#0050A7"/>
<rect width="79.9996" height="79.9996" transform="matrix(1 0 0 -1 1280 239.999)" fill="#A0CDFF"/>
<path d="M1280 319.999L1360 319.999L1360 239.999C1315.82 239.999 1280 275.816 1280 319.999Z" fill="white"/>
<path d="M1360 239.999L1440 239.999L1440 160C1395.82 160 1360 195.817 1360 239.999Z" fill="#0060C8"/>
<rect width="159.999" height="159.999" transform="matrix(1 0 0 -1 960 319.999)" fill="#0050A7"/>
<path d="M1120 239.999C1120 224.177 1115.31 208.71 1106.52 195.554C1097.73 182.398 1085.23 172.144 1070.61 166.089C1056 160.034 1039.91 158.45 1024.39 161.537C1008.87 164.624 994.619 172.243 983.431 183.431C972.243 194.619 964.624 208.874 961.537 224.392C958.45 239.911 960.035 255.996 966.09 270.614C972.145 285.232 982.398 297.726 995.554 306.517C1008.71 315.307 1024.18 319.999 1040 319.999L1040 239.999L1120 239.999Z" fill="#3B98FF"/>
<path d="M1078.4 239.999C1078.4 232.405 1076.15 224.981 1071.93 218.666C1067.71 212.351 1061.71 207.429 1054.69 204.523C1047.68 201.616 1039.96 200.856 1032.51 202.338C1025.06 203.819 1018.22 207.476 1012.85 212.847C1007.48 218.217 1003.82 225.059 1002.34 232.508C1000.85 239.957 1001.62 247.678 1004.52 254.694C1007.43 261.711 1012.35 267.708 1018.66 271.928C1024.98 276.147 1032.4 278.399 1040 278.399V239.999L1078.4 239.999Z" fill="#0060C8"/>
<rect width="79.9996" height="79.9996" transform="matrix(1 0 0 -1 1040 319.999)" fill="#A0CDFF"/>
<path d="M1078.4 239.999C1078.4 245.042 1077.41 250.036 1075.48 254.694C1073.55 259.353 1070.72 263.586 1067.15 267.152C1063.59 270.718 1059.35 273.547 1054.69 275.476C1050.03 277.406 1045.04 278.399 1040 278.399V239.999L1078.4 239.999Z" fill="white"/>
<rect width="159.999" height="159.999" transform="matrix(1 0 0 -1 1760 159.999)" fill="#0050A7"/>
<rect width="159.999" height="159.999" transform="matrix(1 0 0 -1 1600 159.999)" fill="#A0CDFF"/>
<path d="M1680 79.9996C1680 35.8171 1644.18 3.13123e-06 1600 6.99379e-06L1600 159.999C1644.18 159.999 1680 124.182 1680 79.9996Z" fill="#0060C8"/>
<path d="M1659 108.001C1659 152.184 1694.82 188.001 1739 188.001L1739 28.0015C1694.82 28.0015 1659 63.8186 1659 108.001Z" fill="white"/>
<rect width="159.999" height="159.999" transform="matrix(1 0 0 -1 1440 160)" fill="#0060C8"/>
<rect width="79.9996" height="79.9996" transform="matrix(1 0 0 -1 1520 159.999)" fill="white"/>
<rect x="1579.2" y="139.199" width="38.3998" height="38.3998" rx="19.1999" transform="rotate(180 1579.2 139.199)" fill="#0050A7"/>
<path d="M1440 160L1520 160L1520 79.9999C1520 35.8174 1484.18 0.000289917 1440 0.000289917L1440 160Z" fill="#3B98FF"/>
<path d="M1840 79.9998L1920 0.000144958L1760 0.000144958L1840 79.9998Z" fill="#9DCCFF"/>
<path d="M1840 159.999L1920 79.9997L1760 79.9997L1840 159.999Z" fill="white"/>
<rect width="159.999" height="159.999" transform="matrix(1 0 0 -1 1600 319.998)" fill="#0050A7"/>
<path d="M1599.66 320.335L1759.66 320.335L1599.66 160.336L1599.66 320.335Z" fill="#005EC5"/>
<rect width="62.225" height="62.225" transform="matrix(0.707107 0.707107 0.707107 -0.707107 1636 239.999)" fill="white"/>
<rect width="159.999" height="159.999" transform="matrix(1 0 0 -1 1760 319.998)" fill="#4CA0FD"/>
<rect width="79.9996" height="79.9996" transform="matrix(1 0 0 -1 1840 319.999)" fill="#0050A7"/>
<rect width="79.9996" height="79.9996" transform="matrix(1 0 0 -1 1760 239.999)" fill="#A0CDFF"/>
<path d="M1760 319.998L1840 319.998L1840 239.999C1795.82 239.999 1760 275.816 1760 319.998Z" fill="white"/>
<path d="M1840 239.999L1920 239.999L1920 159.999C1875.82 159.999 1840 195.816 1840 239.999Z" fill="#0060C8"/>
<rect width="159.999" height="159.999" transform="matrix(1 0 0 -1 1440 319.999)" fill="#0050A7"/>
<path d="M1600 239.999C1600 224.176 1595.31 208.709 1586.52 195.554C1577.73 182.398 1565.23 172.144 1550.61 166.089C1536 160.034 1519.91 158.45 1504.39 161.536C1488.87 164.623 1474.62 172.243 1463.43 183.431C1452.24 194.619 1444.62 208.873 1441.54 224.392C1438.45 239.91 1440.03 255.995 1446.09 270.613C1452.14 285.231 1462.4 297.726 1475.55 306.516C1488.71 315.307 1504.18 319.999 1520 319.999L1520 239.999L1600 239.999Z" fill="#3B98FF"/>
<path d="M1558.4 239.999C1558.4 232.404 1556.15 224.98 1551.93 218.665C1547.71 212.35 1541.71 207.429 1534.69 204.522C1527.68 201.616 1519.96 200.855 1512.51 202.337C1505.06 203.819 1498.22 207.476 1492.85 212.846C1487.48 218.217 1483.82 225.059 1482.34 232.508C1480.85 239.956 1481.62 247.677 1484.52 254.694C1487.43 261.711 1492.35 267.708 1498.66 271.927C1504.98 276.147 1512.4 278.399 1520 278.399V239.999L1558.4 239.999Z" fill="#0060C8"/>
<rect width="79.9996" height="79.9996" transform="matrix(1 0 0 -1 1520 319.999)" fill="#A0CDFF"/>
<path d="M1558.4 239.999C1558.4 245.042 1557.41 250.035 1555.48 254.694C1553.55 259.353 1550.72 263.586 1547.15 267.152C1543.59 270.718 1539.35 273.546 1534.69 275.476C1530.03 277.406 1525.04 278.399 1520 278.399V239.999L1558.4 239.999Z" fill="white"/>
<rect width="159.999" height="159.999" transform="matrix(1 0 0 -1 320 800.003)" fill="#0050A7"/>
<rect width="159.999" height="159.999" transform="matrix(1 0 0 -1 160 800.002)" fill="#A0CDFF"/>
<path d="M240 720.003C240 675.82 204.183 640.003 160 640.003L160 800.003C204.183 800.003 240 764.185 240 720.003Z" fill="#0060C8"/>
<path d="M240 720.003C240 764.186 275.817 800.003 320 800.003L320 640.003C275.817 640.003 240 675.82 240 720.003Z" fill="white"/>
<rect width="159.999" height="159.999" transform="matrix(1 0 0 -1 0 800.002)" fill="#0060C8"/>
<rect width="79.9996" height="79.9996" transform="matrix(1 0 0 -1 79.999 800.003)" fill="white"/>
<rect x="139.198" y="779.203" width="38.3998" height="38.3998" rx="19.1999" transform="rotate(180 139.198 779.203)" fill="#0050A7"/>
<path d="M0 800.002L79.9996 800.002L79.9996 720.002C79.9996 675.82 44.1826 640.003 0 640.003L0 800.002Z" fill="#3B98FF"/>
<path d="M399.999 720.003L479.999 640.003L320 640.003L399.999 720.003Z" fill="#9DCCFF"/>
<path d="M399.999 800.003L479.999 720.003L320 720.003L399.999 800.003Z" fill="white"/>
<rect width="159.999" height="159.999" transform="matrix(1 0 0 -1 159.999 960.002)" fill="#0050A7"/>
<path d="M159.663 960.339L319.662 960.339L159.663 800.34L159.663 960.339Z" fill="#005EC5"/>
<rect width="62.225" height="62.225" transform="matrix(0.707107 0.707107 0.707107 -0.707107 196 880.002)" fill="white"/>
<rect width="159.999" height="159.999" transform="matrix(1 0 0 -1 320 960.002)" fill="#4CA0FD"/>
<rect width="79.9996" height="79.9996" transform="matrix(1 0 0 -1 399.999 960.002)" fill="#0050A7"/>
<rect width="79.9996" height="79.9996" transform="matrix(1 0 0 -1 319.999 880.002)" fill="#A0CDFF"/>
<path d="M320 960.002L399.999 960.002L399.999 880.002C355.817 880.002 320 915.819 320 960.002Z" fill="white"/>
<path d="M399.999 880.002L479.998 880.002L479.998 800.003C435.816 800.003 399.999 835.82 399.999 880.002Z" fill="#0060C8"/>
<rect width="159.999" height="159.999" transform="matrix(1 0 0 -1 0 960.002)" fill="#0050A7"/>
<path d="M159.999 880.002C159.999 864.18 155.307 848.713 146.517 835.557C137.726 822.401 125.232 812.147 110.614 806.092C95.9961 800.037 79.9109 798.453 64.3925 801.54C48.8741 804.627 34.6195 812.246 23.4313 823.434C12.2432 834.622 4.62397 848.877 1.53717 864.395C-1.54963 879.914 0.0346267 895.999 6.08961 910.617C12.1446 925.235 22.3983 937.729 35.5542 946.52C48.7101 955.31 64.1772 960.002 79.9996 960.002L79.9996 880.002L159.999 880.002Z" fill="#3B98FF"/>
<path d="M118.398 880.003C118.398 872.408 116.146 864.984 111.927 858.669C107.707 852.354 101.71 847.432 94.6934 844.526C87.6768 841.619 79.9558 840.859 72.507 842.341C65.0582 843.822 58.216 847.479 52.8457 852.85C47.4754 858.22 43.8181 865.062 42.3365 872.511C40.8548 879.96 41.6153 887.681 44.5216 894.698C47.428 901.714 52.3498 907.711 58.6647 911.931C64.9795 916.15 72.4037 918.402 79.9984 918.402L79.9984 880.003H118.398Z" fill="#0060C8"/>
<rect width="79.9996" height="79.9996" transform="matrix(1 0 0 -1 79.999 960.002)" fill="#A0CDFF"/>
<path d="M118.398 880.003C118.398 885.045 117.405 890.039 115.475 894.698C113.545 899.356 110.717 903.59 107.151 907.155C103.585 910.721 99.3523 913.55 94.6934 915.479C90.0345 917.409 85.0412 918.402 79.9984 918.402L79.9984 880.003H118.398Z" fill="white"/>
<rect width="159.999" height="159.999" transform="matrix(1 0 0 -1 800 799.999)" fill="#0050A7"/>
<rect width="159.999" height="159.999" transform="matrix(1 0 0 -1 640 799.999)" fill="#A0CDFF"/>
<path d="M720 719.999C720 675.817 684.183 640 640 640L640 799.999C684.183 799.999 720 764.182 720 719.999Z" fill="#0060C8"/>
<path d="M720 720C720 764.182 755.817 799.999 800 799.999L800 640C755.817 640 720 675.817 720 720Z" fill="white"/>
<rect width="159.999" height="159.999" transform="matrix(1 0 0 -1 480 800)" fill="#0060C8"/>
<rect width="79.9996" height="79.9996" transform="matrix(1 0 0 -1 559.999 800)" fill="white"/>
<rect x="619.198" y="779.2" width="38.3998" height="38.3998" rx="19.1999" transform="rotate(180 619.198 779.2)" fill="#0050A7"/>
<path d="M480 800L560 800L560 720C560 675.817 524.183 640 480 640L480 800Z" fill="#3B98FF"/>
<path d="M879.999 720L959.999 640L800 640L879.999 720Z" fill="#9DCCFF"/>
<path d="M879.999 799.999L959.999 720L800 720L879.999 799.999Z" fill="white"/>
<rect width="159.999" height="159.999" transform="matrix(1 0 0 -1 639.999 959.999)" fill="#0050A7"/>
<path d="M639.662 960.335L799.661 960.335L639.662 800.336L639.662 960.335Z" fill="#005EC5"/>
<rect width="62.225" height="62.225" transform="matrix(0.707107 0.707107 0.707107 -0.707107 675.999 879.999)" fill="white"/>
<rect width="159.999" height="159.999" transform="matrix(1 0 0 -1 800 959.999)" fill="#4CA0FD"/>
<rect width="79.9996" height="79.9996" transform="matrix(1 0 0 -1 879.999 959.999)" fill="#0050A7"/>
<rect width="79.9996" height="79.9996" transform="matrix(1 0 0 -1 799.999 879.999)" fill="#A0CDFF"/>
<path d="M800 959.999L879.999 959.999L879.999 879.999C835.817 879.999 800 915.816 800 959.999Z" fill="white"/>
<path d="M879.999 879.999L959.999 879.999L959.999 799.999C915.816 799.999 879.999 835.816 879.999 879.999Z" fill="#0060C8"/>
<rect width="159.999" height="159.999" transform="matrix(1 0 0 -1 480 959.999)" fill="#0050A7"/>
<path d="M639.999 879.999C639.999 864.176 635.307 848.709 626.517 835.554C617.726 822.398 605.232 812.144 590.614 806.089C575.996 800.034 559.911 798.45 544.392 801.536C528.874 804.623 514.619 812.243 503.431 823.431C492.243 834.619 484.624 848.873 481.537 864.392C478.45 879.91 480.035 895.995 486.09 910.613C492.145 925.231 502.398 937.726 515.554 946.516C528.71 955.307 544.177 959.999 560 959.999L560 879.999L639.999 879.999Z" fill="#3B98FF"/>
<path d="M598.398 879.999C598.398 872.404 596.146 864.98 591.927 858.665C587.707 852.351 581.71 847.429 574.693 844.522C567.677 841.616 559.956 840.855 552.507 842.337C545.058 843.819 538.216 847.476 532.846 852.846C527.475 858.217 523.818 865.059 522.336 872.508C520.855 879.957 521.615 887.677 524.522 894.694C527.428 901.711 532.35 907.708 538.665 911.927C544.979 916.147 552.404 918.399 559.998 918.399L559.998 879.999H598.398Z" fill="#0060C8"/>
<rect width="79.9996" height="79.9996" transform="matrix(1 0 0 -1 559.999 959.999)" fill="#A0CDFF"/>
<path d="M598.398 879.999C598.398 885.042 597.405 890.035 595.475 894.694C593.545 899.353 590.717 903.586 587.151 907.152C583.585 910.718 579.352 913.546 574.693 915.476C570.035 917.406 565.041 918.399 559.998 918.399L559.998 879.999H598.398Z" fill="white"/>
<rect width="159.999" height="159.999" transform="matrix(1 0 0 -1 1280 799.999)" fill="#0050A7"/>
<rect width="159.999" height="159.999" transform="matrix(1 0 0 -1 1120 799.999)" fill="#A0CDFF"/>
<path d="M1200 719.999C1200 675.817 1164.18 640 1120 640L1120 799.999C1164.18 799.999 1200 764.182 1200 719.999Z" fill="#0060C8"/>
<path d="M1200 720C1200 764.182 1235.82 799.999 1280 799.999L1280 640C1235.82 640 1200 675.817 1200 720Z" fill="white"/>
<rect width="159.999" height="159.999" transform="matrix(1 0 0 -1 960 800)" fill="#0060C8"/>
<rect width="79.9996" height="79.9996" transform="matrix(1 0 0 -1 1040 800)" fill="white"/>
<rect x="1099.2" y="779.2" width="38.3998" height="38.3998" rx="19.1999" transform="rotate(180 1099.2 779.2)" fill="#0050A7"/>
<path d="M960 800L1040 800L1040 720C1040 675.817 1004.18 640 960 640L960 800Z" fill="#3B98FF"/>
<path d="M1360 720L1440 640L1280 640L1360 720Z" fill="#9DCCFF"/>
<path d="M1360 799.999L1440 720L1280 720L1360 799.999Z" fill="white"/>
<rect width="159.999" height="159.999" transform="matrix(1 0 0 -1 1120 959.999)" fill="#0050A7"/>
<path d="M1119.66 960.335L1279.66 960.335L1119.66 800.336L1119.66 960.335Z" fill="#005EC5"/>
<rect width="62.225" height="62.225" transform="matrix(0.707107 0.707107 0.707107 -0.707107 1156 879.999)" fill="white"/>
<rect width="159.999" height="159.999" transform="matrix(1 0 0 -1 1280 959.999)" fill="#4CA0FD"/>
<rect width="79.9996" height="79.9996" transform="matrix(1 0 0 -1 1360 959.999)" fill="#0050A7"/>
<rect width="79.9996" height="79.9996" transform="matrix(1 0 0 -1 1280 879.999)" fill="#A0CDFF"/>
<path d="M1280 959.999L1360 959.999L1360 879.999C1315.82 879.999 1280 915.816 1280 959.999Z" fill="white"/>
<path d="M1360 879.999L1440 879.999L1440 799.999C1395.82 799.999 1360 835.816 1360 879.999Z" fill="#0060C8"/>
<rect width="159.999" height="159.999" transform="matrix(1 0 0 -1 960 959.999)" fill="#0050A7"/>
<path d="M1120 879.999C1120 864.176 1115.31 848.709 1106.52 835.554C1097.73 822.398 1085.23 812.144 1070.61 806.089C1056 800.034 1039.91 798.45 1024.39 801.536C1008.87 804.623 994.619 812.243 983.431 823.431C972.243 834.619 964.624 848.873 961.537 864.392C958.45 879.91 960.035 895.995 966.09 910.613C972.145 925.231 982.398 937.726 995.554 946.516C1008.71 955.307 1024.18 959.999 1040 959.999L1040 879.999L1120 879.999Z" fill="#3B98FF"/>
<path d="M1078.4 879.999C1078.4 872.404 1076.15 864.98 1071.93 858.665C1067.71 852.351 1061.71 847.429 1054.69 844.522C1047.68 841.616 1039.96 840.855 1032.51 842.337C1025.06 843.819 1018.22 847.476 1012.85 852.846C1007.48 858.217 1003.82 865.059 1002.34 872.508C1000.85 879.957 1001.62 887.677 1004.52 894.694C1007.43 901.711 1012.35 907.708 1018.66 911.927C1024.98 916.147 1032.4 918.399 1040 918.399V879.999H1078.4Z" fill="#0060C8"/>
<rect width="79.9996" height="79.9996" transform="matrix(1 0 0 -1 1040 959.999)" fill="#A0CDFF"/>
<path d="M1078.4 879.999C1078.4 885.042 1077.41 890.035 1075.48 894.694C1073.55 899.353 1070.72 903.586 1067.15 907.152C1063.59 910.718 1059.35 913.546 1054.69 915.476C1050.03 917.406 1045.04 918.399 1040 918.399V879.999H1078.4Z" fill="white"/>
<rect width="159.999" height="159.999" transform="matrix(1 0 0 -1 1760 799.999)" fill="#0050A7"/>
<rect width="159.999" height="159.999" transform="matrix(1 0 0 -1 1600 799.999)" fill="#A0CDFF"/>
<path d="M1680 719.999C1680 675.817 1644.18 640 1600 640L1600 799.999C1644.18 799.999 1680 764.182 1680 719.999Z" fill="#0060C8"/>
<path d="M1680 720C1680 764.182 1715.82 799.999 1760 799.999L1760 640C1715.82 640 1680 675.817 1680 720Z" fill="white"/>
<rect width="159.999" height="159.999" transform="matrix(1 0 0 -1 1440 800)" fill="#0060C8"/>
<rect width="79.9996" height="79.9996" transform="matrix(1 0 0 -1 1520 800)" fill="white"/>
<rect x="1579.2" y="779.2" width="38.3998" height="38.3998" rx="19.1999" transform="rotate(180 1579.2 779.2)" fill="#0050A7"/>
<path d="M1440 800L1520 800L1520 720C1520 675.817 1484.18 640 1440 640L1440 800Z" fill="#3B98FF"/>
<path d="M1840 720L1920 640L1760 640L1840 720Z" fill="#9DCCFF"/>
<path d="M1840 799.999L1920 720L1760 720L1840 799.999Z" fill="white"/>
<rect width="159.999" height="159.999" transform="matrix(1 0 0 -1 1600 959.999)" fill="#0050A7"/>
<path d="M1599.66 960.335L1759.66 960.335L1599.66 800.336L1599.66 960.335Z" fill="#005EC5"/>
<rect width="62.225" height="62.225" transform="matrix(0.707107 0.707107 0.707107 -0.707107 1636 879.999)" fill="white"/>
<rect width="159.999" height="159.999" transform="matrix(1 0 0 -1 1760 959.999)" fill="#4CA0FD"/>
<rect width="79.9996" height="79.9996" transform="matrix(1 0 0 -1 1840 959.999)" fill="#0050A7"/>
<rect width="79.9996" height="79.9996" transform="matrix(1 0 0 -1 1760 879.999)" fill="#A0CDFF"/>
<path d="M1760 959.999L1840 959.999L1840 879.999C1795.82 879.999 1760 915.816 1760 959.999Z" fill="white"/>
<path d="M1840 879.999L1920 879.999L1920 799.999C1875.82 799.999 1840 835.816 1840 879.999Z" fill="#0060C8"/>
<rect width="159.999" height="159.999" transform="matrix(1 0 0 -1 1440 959.999)" fill="#0050A7"/>
<path d="M1600 879.999C1600 864.176 1595.31 848.709 1586.52 835.554C1577.73 822.398 1565.23 812.144 1550.61 806.089C1536 800.034 1519.91 798.45 1504.39 801.536C1488.87 804.623 1474.62 812.243 1463.43 823.431C1452.24 834.619 1444.62 848.873 1441.54 864.392C1438.45 879.91 1440.03 895.995 1446.09 910.613C1452.14 925.231 1462.4 937.726 1475.55 946.516C1488.71 955.307 1504.18 959.999 1520 959.999L1520 879.999L1600 879.999Z" fill="#3B98FF"/>
<path d="M1558.4 879.999C1558.4 872.404 1556.15 864.98 1551.93 858.665C1547.71 852.351 1541.71 847.429 1534.69 844.522C1527.68 841.616 1519.96 840.855 1512.51 842.337C1505.06 843.819 1498.22 847.476 1492.85 852.846C1487.48 858.217 1483.82 865.059 1482.34 872.508C1480.85 879.957 1481.62 887.677 1484.52 894.694C1487.43 901.711 1492.35 907.708 1498.66 911.927C1504.98 916.147 1512.4 918.399 1520 918.399V879.999H1558.4Z" fill="#0060C8"/>
<rect width="79.9996" height="79.9996" transform="matrix(1 0 0 -1 1520 959.999)" fill="#A0CDFF"/>
<path d="M1558.4 879.999C1558.4 885.042 1557.41 890.035 1555.48 894.694C1553.55 899.353 1550.72 903.586 1547.15 907.152C1543.59 910.718 1539.35 913.546 1534.69 915.476C1530.03 917.406 1525.04 918.399 1520 918.399V879.999H1558.4Z" fill="white"/>
<g opacity="0.5">
<rect width="159.999" height="159.999" transform="matrix(1 0 0 -1 0.0012207 480.001)" fill="#0C45BF"/>
<path d="M80.0003 400.002L160 320.002L0.000732422 320.002L80.0003 400.002Z" fill="white"/>
<path d="M79.9999 400.002L0.000296911 480.001L160 480.001L79.9999 400.002Z" fill="#005EC5"/>
<rect width="159.999" height="159.999" transform="matrix(1 0 0 -1 160 480.001)" fill="#A0CDFF"/>
<circle r="17.9999" transform="matrix(1 0 0 -1 209.201 430.802)" fill="#3B98FF"/>
<circle r="17.9999" transform="matrix(1 0 0 -1 270.8 430.801)" fill="white"/>
<circle r="17.9999" transform="matrix(1 0 0 -1 209.201 369.202)" fill="white"/>
<circle r="17.9999" transform="matrix(1 0 0 -1 270.8 369.202)" fill="#0060C8"/>
<rect width="159.999" height="159.999" transform="matrix(1 0 0 -1 320.001 480.001)" fill="#488AD1"/>
<path fill-rule="evenodd" clip-rule="evenodd" d="M479.99 320.002L320 320.002L320 480.001C320 480.001 320 480.001 320 480.001C408.365 480.001 479.999 409.155 479.999 321.76C479.999 321.174 479.996 320.588 479.99 320.002Z" fill="white"/>
<path fill-rule="evenodd" clip-rule="evenodd" d="M399.987 320.002L320 320.002L320 401.406C364.182 401.405 399.999 365.589 399.999 321.406C399.999 320.937 399.995 320.469 399.987 320.002Z" fill="#0060C8"/>
<rect width="159.999" height="159.999" transform="matrix(1 0 0 -1 480.001 479.999)" fill="#0C45BF"/>
<path d="M560.001 399.999L640 319.999L480.001 319.999L560.001 399.999Z" fill="white"/>
<path d="M560 399.999L480 479.998L640 479.998L560 399.999Z" fill="#005EC5"/>
<rect width="159.999" height="159.999" transform="matrix(1 0 0 -1 640 479.999)" fill="#A0CDFF"/>
<circle r="17.9999" transform="matrix(1 0 0 -1 689.201 430.799)" fill="#3B98FF"/>
<circle r="17.9999" transform="matrix(1 0 0 -1 750.8 430.799)" fill="white"/>
<circle r="17.9999" transform="matrix(1 0 0 -1 689.201 369.199)" fill="white"/>
<circle r="17.9999" transform="matrix(1 0 0 -1 750.8 369.199)" fill="#0060C8"/>
<rect width="159.999" height="159.999" transform="matrix(1 0 0 -1 800 479.999)" fill="#488AD1"/>
<path fill-rule="evenodd" clip-rule="evenodd" d="M959.989 319.999L800 319.999L800 479.999C800 479.999 800 479.999 800 479.999C888.365 479.999 959.999 409.152 959.999 321.758C959.999 321.171 959.996 320.585 959.989 319.999Z" fill="white"/>
<path fill-rule="evenodd" clip-rule="evenodd" d="M879.986 319.999L800 319.999L800 401.403C844.182 401.402 879.998 365.585 879.998 321.403C879.998 320.934 879.994 320.466 879.986 319.999Z" fill="#0060C8"/>
<rect width="159.999" height="159.999" transform="matrix(1 0 0 -1 960.001 479.999)" fill="#0C45BF"/>
<path d="M1040 399.999L1120 319.999L960 319.999L1040 399.999Z" fill="white"/>
<path d="M1040 399.999L960 479.998L1120 479.998L1040 399.999Z" fill="#005EC5"/>
<rect width="159.999" height="159.999" transform="matrix(1 0 0 -1 1120 479.999)" fill="#A0CDFF"/>
<circle r="17.9999" transform="matrix(1 0 0 -1 1169.2 430.799)" fill="#3B98FF"/>
<circle r="17.9999" transform="matrix(1 0 0 -1 1230.8 430.799)" fill="white"/>
<circle r="17.9999" transform="matrix(1 0 0 -1 1169.2 369.199)" fill="white"/>
<circle r="17.9999" transform="matrix(1 0 0 -1 1230.8 369.199)" fill="#0060C8"/>
<rect width="159.999" height="159.999" transform="matrix(1 0 0 -1 1280 479.999)" fill="#488AD1"/>
<path fill-rule="evenodd" clip-rule="evenodd" d="M1439.99 319.999L1280 319.999L1280 479.999C1280 479.999 1280 479.999 1280 479.999C1368.37 479.999 1440 409.152 1440 321.758C1440 321.171 1440 320.585 1439.99 319.999Z" fill="white"/>
<path fill-rule="evenodd" clip-rule="evenodd" d="M1359.99 319.999L1280 319.999L1280 401.403C1324.18 401.402 1360 365.585 1360 321.403C1360 320.934 1359.99 320.466 1359.99 319.999Z" fill="#0060C8"/>
<rect width="159.999" height="159.999" transform="matrix(1 0 0 -1 1440 479.999)" fill="#0C45BF"/>
<path d="M1520 399.999L1600 320L1440 320L1520 399.999Z" fill="white"/>
<path d="M1520 399.999L1440 479.999L1600 479.999L1520 399.999Z" fill="#005EC5"/>
<rect width="159.999" height="159.999" transform="matrix(1 0 0 -1 1600 479.998)" fill="#A0CDFF"/>
<circle r="17.9999" transform="matrix(1 0 0 -1 1649.2 430.799)" fill="#3B98FF"/>
<circle r="17.9999" transform="matrix(1 0 0 -1 1710.8 430.798)" fill="white"/>
<circle r="17.9999" transform="matrix(1 0 0 -1 1649.2 369.199)" fill="white"/>
<circle r="17.9999" transform="matrix(1 0 0 -1 1710.8 369.199)" fill="#0060C8"/>
<rect width="159.999" height="159.999" transform="matrix(1 0 0 -1 1760 479.999)" fill="#488AD1"/>
<path fill-rule="evenodd" clip-rule="evenodd" d="M1919.99 320L1760 320L1760 479.999C1760 479.999 1760 479.999 1760 479.999C1848.37 479.999 1920 409.152 1920 321.758C1920 321.171 1920 320.585 1919.99 320Z" fill="white"/>
<path fill-rule="evenodd" clip-rule="evenodd" d="M1839.99 319.998L1760 319.998L1760 401.402C1804.18 401.401 1840 365.584 1840 321.402C1840 320.933 1839.99 320.465 1839.99 319.998Z" fill="#0060C8"/>
<rect width="159.999" height="159.999" transform="matrix(1 0 0 -1 0.000732422 640.004)" fill="#0050A7"/>
<rect width="79.9996" height="79.9996" transform="matrix(1 0 0 -1 80.001 640.004)" fill="#3B98FF"/>
<rect width="79.9996" height="79.9996" transform="matrix(1 0 0 -1 80.001 560.005)" fill="white"/>
<path d="M80.0001 560.005L160 480.006L0.000488281 480.006L80.0001 560.005Z" fill="#9FCDFF"/>
<rect width="159.999" height="159.999" transform="matrix(1 0 0 -1 160 640.003)" fill="#A0CDFF"/>
<path d="M159.663 640.003L319.662 640.003L159.663 480.004L159.663 640.003Z" fill="#005EC5"/>
<path d="M240 560.004L160 640.003L320 640.003L240 560.004Z" fill="#0050A8"/>
<rect width="51.9998" height="17.5999" transform="matrix(1 0 0 -1 246.4 532.004)" fill="#3B98FF"/>
<rect width="159.999" height="159.999" transform="matrix(1 0 0 -1 320 640.004)" fill="#0060C8"/>
<rect width="79.9996" height="79.9996" transform="matrix(1 0 0 -1 360 600.004)" fill="white"/>
<path d="M479.999 480.005L320 480.005L479.999 640.004L479.999 480.005Z" fill="#0050A7"/>
<rect width="59.9997" height="59.9997" transform="matrix(1 0 0 -1 420 540.804)" fill="white"/>
<rect width="159.999" height="159.999" transform="matrix(1 0 0 -1 480.001 640)" fill="#0050A7"/>
<rect width="79.9996" height="79.9996" transform="matrix(1 0 0 -1 560.001 640)" fill="#3B98FF"/>
<rect width="79.9996" height="79.9996" transform="matrix(1 0 0 -1 560.001 560.001)" fill="white"/>
<path d="M560 560.001L640 480.001L480 480.001L560 560.001Z" fill="#9FCDFF"/>
<rect width="159.999" height="159.999" transform="matrix(1 0 0 -1 640 640)" fill="#A0CDFF"/>
<path d="M639.662 640L799.661 640L639.662 480.001L639.662 640Z" fill="#005EC5"/>
<path d="M720 560L640 640L800 640L720 560Z" fill="#0050A8"/>
<rect width="51.9998" height="17.5999" transform="matrix(1 0 0 -1 726.399 532)" fill="#3B98FF"/>
<rect width="159.999" height="159.999" transform="matrix(1 0 0 -1 800 640)" fill="#0060C8"/>
<rect width="79.9996" height="79.9996" transform="matrix(1 0 0 -1 839.999 600.001)" fill="white"/>
<path d="M959.999 480.001L800 480.001L959.999 640L959.999 480.001Z" fill="#0050A7"/>
<rect width="59.9997" height="59.9997" transform="matrix(1 0 0 -1 899.999 540.801)" fill="white"/>
<rect width="159.999" height="159.999" transform="matrix(1 0 0 -1 960.001 640)" fill="#0050A7"/>
<rect width="79.9996" height="79.9996" transform="matrix(1 0 0 -1 1040 640)" fill="#3B98FF"/>
<rect width="79.9996" height="79.9996" transform="matrix(1 0 0 -1 1040 560.001)" fill="white"/>
<path d="M1040 560.001L1120 480.001L960 480.001L1040 560.001Z" fill="#9FCDFF"/>
<rect width="159.999" height="159.999" transform="matrix(1 0 0 -1 1120 640)" fill="#A0CDFF"/>
<path d="M1119.66 640L1279.66 640L1119.66 480.001L1119.66 640Z" fill="#005EC5"/>
<path d="M1200 560L1120 640L1280 640L1200 560Z" fill="#0050A8"/>
<rect width="51.9998" height="17.5999" transform="matrix(1 0 0 -1 1206.4 532)" fill="#3B98FF"/>
<rect width="159.999" height="159.999" transform="matrix(1 0 0 -1 1280 640)" fill="#0060C8"/>
<rect width="79.9996" height="79.9996" transform="matrix(1 0 0 -1 1320 600.001)" fill="white"/>
<path d="M1440 480.001L1280 480.001L1440 640L1440 480.001Z" fill="#0050A7"/>
<rect width="59.9997" height="59.9997" transform="matrix(1 0 0 -1 1380 540.801)" fill="white"/>
<rect width="159.999" height="159.999" transform="matrix(1 0 0 -1 1440 640)" fill="#0050A7"/>
<rect width="79.9996" height="79.9996" transform="matrix(1 0 0 -1 1520 640)" fill="#3B98FF"/>
<rect width="79.9996" height="79.9996" transform="matrix(1 0 0 -1 1520 560.001)" fill="white"/>
<path d="M1520 560.001L1600 480.001L1440 480.001L1520 560.001Z" fill="#9FCDFF"/>
<rect width="159.999" height="159.999" transform="matrix(1 0 0 -1 1600 640)" fill="#A0CDFF"/>
<path d="M1599.66 640L1759.66 640L1599.66 480.001L1599.66 640Z" fill="#005EC5"/>
<path d="M1680 560L1600 640L1760 640L1680 560Z" fill="#0050A8"/>
<rect width="51.9998" height="17.5999" transform="matrix(1 0 0 -1 1686.4 532)" fill="#3B98FF"/>
<rect width="159.999" height="159.999" transform="matrix(1 0 0 -1 1760 640)" fill="#0060C8"/>
<rect width="79.9996" height="79.9996" transform="matrix(1 0 0 -1 1800 600.001)" fill="white"/>
<path d="M1920 480.001L1760 480.001L1920 640L1920 480.001Z" fill="#0050A7"/>
<rect width="59.9997" height="59.9997" transform="matrix(1 0 0 -1 1860 540.801)" fill="white"/>
</g>
<g style="mix-blend-mode:hue">
<path d="M320 160.003L479.999 160.003V0.00348663H320V160.003Z" fill="#FF6935"/>
<path d="M160 160.003L320 160.003V0.00348663L160 0.00335846V160.003Z" fill="#FF6935"/>
<path d="M240 80.003C240 35.8205 204.183 0.0033546 160 0.00335846V160.003C204.183 160.003 240 124.186 240 80.003Z" fill="#FF6935"/>
<path d="M240 80.003C240 124.186 275.817 160.003 320 160.003V0.00348663C275.817 0.00348663 240 35.8205 240 80.003Z" fill="#FF6935"/>
<path d="M3.59889e-05 160.002H159.999V0.00269794H3.59889e-05V160.002Z" fill="#FF6935"/>
<path d="M79.9991 160.003H159.999V80.0032H79.9991V160.003Z" fill="#FF6935"/>
<path d="M139.198 120.003C139.198 130.607 130.602 139.203 119.999 139.203C109.395 139.203 100.799 130.607 100.799 120.003C100.799 109.399 109.395 100.803 119.999 100.803C130.602 100.803 139.198 109.399 139.198 120.003Z" fill="#FF6935"/>
<path d="M3.59889e-05 160.002H79.9996V80.0023C79.9996 35.8198 44.1826 0.00269794 3.59889e-05 0.00269794V160.002Z" fill="#FF6935"/>
<path d="M399.999 80.0032L479.999 0.00348663H320L399.999 80.0032Z" fill="#FF6935"/>
<path d="M399.999 160.003L479.999 80.0031H320L399.999 160.003Z" fill="#FF6935"/>
<path d="M159.999 320.002H319.998V160.003L159.999 160.003L159.999 320.002Z" fill="#FF6935"/>
<path d="M159.663 320.339L319.662 320.339L159.663 160.34L159.663 320.339Z" fill="#FF6935"/>
<path d="M196 240.002L239.999 284.002L283.999 240.002L239.999 196.003L196 240.002Z" fill="#FF6935"/>
<path d="M319.999 320.002H479.999L479.999 160.003L320 160.003L319.999 320.002Z" fill="#FF6935"/>
<path d="M399.999 320.002L479.999 320.002L479.998 240.002H399.999V320.002Z" fill="#FF6935"/>
<path d="M319.998 240.002H399.999L399.998 160.003L319.998 160.003L319.998 240.002Z" fill="#FF6935"/>
<path d="M319.999 320.002L399.999 320.002V240.002C355.816 240.002 319.999 275.819 319.999 320.002Z" fill="#FF6935"/>
<path d="M399.999 240.002H479.998L479.999 160.003C435.816 160.003 399.999 195.82 399.999 240.002Z" fill="#FF6935"/>
<path d="M3.59889e-05 320.002L159.999 320.002L159.999 160.002H3.59889e-05V320.002Z" fill="#FF6935"/>
<path d="M159.999 240.002C159.999 224.18 155.307 208.713 146.517 195.557C137.726 182.401 125.232 172.147 110.614 166.092C95.9962 160.037 79.9109 158.453 64.3925 161.54C48.8741 164.627 34.6195 172.246 23.4314 183.434C12.2432 194.622 4.62401 208.877 1.53721 224.395C-1.5496 239.914 0.0346627 255.999 6.08964 270.617C12.1446 285.235 22.3984 297.729 35.5542 306.52C48.7101 315.31 64.1772 320.002 79.9996 320.002V240.002H159.999Z" fill="#FF6935"/>
<path d="M118.398 240.002C118.398 232.408 116.146 224.984 111.927 218.669C107.707 212.354 101.71 207.432 94.6936 204.526C87.6769 201.619 79.956 200.859 72.5072 202.341C65.0583 203.822 58.2161 207.479 52.8458 212.85C47.4755 218.22 43.8183 225.062 42.3366 232.511C40.855 239.96 41.6154 247.681 44.5218 254.697C47.4282 261.714 52.35 267.711 58.6648 271.931C64.9796 276.15 72.4038 278.402 79.9986 278.402V240.002H118.398Z" fill="#FF6935"/>
<path d="M79.9996 320.002L159.999 320.002L159.999 240.002L79.9986 240.002L79.9996 320.002Z" fill="#FF6935"/>
<path d="M118.398 240.002C118.398 245.045 117.405 250.039 115.475 254.697C113.546 259.356 110.717 263.589 107.151 267.155C103.586 270.721 99.3524 273.549 94.6936 275.479C90.0347 277.409 85.0413 278.402 79.9986 278.402V240.002H118.398Z" fill="#FF6935"/>
<path d="M800 160L959.999 160V0.000556946H800V160Z" fill="#FF6935"/>
<path d="M640 160L800 160V0.000556946L640 0.000442849V160Z" fill="#FF6935"/>
<path d="M720 80.0001C720 35.8175 684.183 0.000438987 640 0.000442849V160C684.183 160 720 124.183 720 80.0001Z" fill="#FF6935"/>
<path d="M720 80.0001C720 124.183 755.817 160 800 160V0.000556946C755.817 0.000556946 720 35.8175 720 80.0001Z" fill="#FF6935"/>
<path d="M480 160L639.999 160V0.000801086H480V160Z" fill="#FF6935"/>
<path d="M559.999 160L639.999 160L639.999 80.0002H559.999V160Z" fill="#FF6935"/>
<path d="M619.198 120C619.198 130.604 610.602 139.2 599.998 139.2C589.395 139.2 580.799 130.604 580.799 120C580.799 109.396 589.395 100.8 599.998 100.8C610.602 100.8 619.198 109.396 619.198 120Z" fill="#FF6935"/>
<path d="M480 160L559.999 160V80.0002C559.999 35.8177 524.182 0.000801086 480 0.000801086V160Z" fill="#FF6935"/>
<path d="M879.999 80.0003L959.999 0.000556946H800L879.999 80.0003Z" fill="#FF6935"/>
<path d="M879.999 160L959.999 80.0002H800L879.999 160Z" fill="#FF6935"/>
<path d="M639.999 319.999H799.998V160L639.999 160L639.999 319.999Z" fill="#FF6935"/>
<path d="M639.662 320.336L799.661 320.336L639.662 160.337L639.662 320.336Z" fill="#FF6935"/>
<path d="M675.999 239.999L719.999 283.999L763.999 239.999L719.999 196L675.999 239.999Z" fill="#FF6935"/>
<path d="M800 319.999H959.999L959.999 160L800 160L800 319.999Z" fill="#FF6935"/>
<path d="M879.999 319.999L959.999 319.999L959.999 239.999H879.999V319.999Z" fill="#FF6935"/>
<path d="M799.999 239.999H879.999L879.999 160L799.998 160L799.999 239.999Z" fill="#FF6935"/>
<path d="M800 319.999L879.999 319.999V239.999C835.816 239.999 800 275.816 800 319.999Z" fill="#FF6935"/>
<path d="M879.999 239.999H959.999L959.999 160C915.816 160 879.999 195.817 879.999 239.999Z" fill="#FF6935"/>
<path d="M480 319.999L639.999 319.999L639.999 160L480 160V319.999Z" fill="#FF6935"/>
<path d="M639.999 239.999C639.999 224.177 635.307 208.71 626.517 195.554C617.726 182.398 605.232 172.144 590.614 166.089C575.996 160.034 559.911 158.45 544.392 161.537C528.874 164.624 514.619 172.243 503.431 183.431C492.243 194.619 484.624 208.874 481.537 224.392C478.45 239.911 480.035 255.996 486.09 270.614C492.145 285.232 502.398 297.726 515.554 306.517C528.71 315.307 544.177 319.999 560 319.999V239.999H639.999Z" fill="#FF6935"/>
<path d="M598.398 240C598.398 232.405 596.146 224.981 591.927 218.666C587.707 212.351 581.71 207.429 574.693 204.523C567.677 201.616 559.956 200.856 552.507 202.338C545.058 203.819 538.216 207.476 532.846 212.847C527.475 218.217 523.818 225.059 522.336 232.508C520.855 239.957 521.615 247.678 524.522 254.695C527.428 261.711 532.35 267.708 538.665 271.928C544.979 276.147 552.404 278.399 559.998 278.399V240H598.398Z" fill="#FF6935"/>
<path d="M560 319.999L639.999 319.999L639.999 239.999L559.998 240L560 319.999Z" fill="#FF6935"/>
<path d="M598.398 240C598.398 245.042 597.405 250.036 595.475 254.695C593.546 259.353 590.717 263.587 587.151 267.152C583.586 270.718 579.352 273.547 574.693 275.476C570.035 277.406 565.041 278.399 559.998 278.399V240H598.398Z" fill="#FF6935"/>
<path d="M1280 160L1440 160V0.000556946H1280V160Z" fill="#FF6935"/>
<path d="M1120 160L1280 160V0.000556946L1120 0.000421609V160Z" fill="#FF6935"/>
<path d="M1200 80.0001C1200 35.8175 1164.18 0.000417747 1120 0.000421609V160C1164.18 160 1200 124.183 1200 80.0001Z" fill="#FF6935"/>
<path d="M1200 80.0001C1200 124.183 1235.82 160 1280 160V0.000556946C1235.82 0.000556946 1200 35.8175 1200 80.0001Z" fill="#FF6935"/>
<path d="M960 160L1120 160V0.000801086H960V160Z" fill="#FF6935"/>
<path d="M1040 160L1120 160L1120 80.0002H1040V160Z" fill="#FF6935"/>
<path d="M1099.2 120C1099.2 130.604 1090.6 139.2 1080 139.2C1069.39 139.2 1060.8 130.604 1060.8 120C1060.8 109.396 1069.39 100.8 1080 100.8C1090.6 100.8 1099.2 109.396 1099.2 120Z" fill="#FF6935"/>
<path d="M960 160L1040 160V80.0002C1040 35.8177 1004.18 0.000801086 960 0.000801086V160Z" fill="#FF6935"/>
<path d="M1360 80.0003L1440 0.000556946H1280L1360 80.0003Z" fill="#FF6935"/>
<path d="M1360 160L1440 80.0002H1280L1360 160Z" fill="#FF6935"/>
<path d="M1120 319.999H1280V160L1120 160L1120 319.999Z" fill="#FF6935"/>
<path d="M1119.66 320.336L1279.66 320.336L1119.66 160.337V320.336Z" fill="#FF6935"/>
<path d="M1156 239.999L1200 283.999L1244 239.999L1200 196L1156 239.999Z" fill="#FF6935"/>
<path d="M1280 319.999H1440L1440 160L1280 160L1280 319.999Z" fill="#FF6935"/>
<path d="M1360 319.999L1440 319.999L1440 239.999H1360V319.999Z" fill="#FF6935"/>
<path d="M1280 239.999H1360L1360 160L1280 160L1280 239.999Z" fill="#FF6935"/>
<path d="M1280 319.999L1360 319.999V239.999C1315.82 239.999 1280 275.816 1280 319.999Z" fill="#FF6935"/>
<path d="M1360 239.999H1440L1440 160C1395.82 160 1360 195.817 1360 239.999Z" fill="#FF6935"/>
<path d="M960 319.999L1120 319.999L1120 160L960 160V319.999Z" fill="#FF6935"/>
<path d="M1120 239.999C1120 224.177 1115.31 208.71 1106.52 195.554C1097.73 182.398 1085.23 172.144 1070.61 166.089C1056 160.034 1039.91 158.45 1024.39 161.537C1008.87 164.624 994.62 172.243 983.431 183.431C972.243 194.619 964.624 208.874 961.537 224.392C958.45 239.911 960.035 255.996 966.09 270.614C972.145 285.232 982.398 297.726 995.554 306.517C1008.71 315.307 1024.18 319.999 1040 319.999V239.999H1120Z" fill="#FF6935"/>
<path d="M1078.4 240C1078.4 232.405 1076.15 224.981 1071.93 218.666C1067.71 212.351 1061.71 207.429 1054.69 204.523C1047.68 201.616 1039.96 200.856 1032.51 202.338C1025.06 203.819 1018.22 207.476 1012.85 212.847C1007.48 218.217 1003.82 225.059 1002.34 232.508C1000.85 239.957 1001.62 247.678 1004.52 254.695C1007.43 261.711 1012.35 267.708 1018.66 271.928C1024.98 276.147 1032.4 278.399 1040 278.399V240H1078.4Z" fill="#FF6935"/>
<path d="M1040 319.999L1120 319.999L1120 239.999H1040V319.999Z" fill="#FF6935"/>
<path d="M1078.4 240C1078.4 245.042 1077.41 250.036 1075.48 254.695C1073.55 259.353 1070.72 263.587 1067.15 267.152C1063.59 270.718 1059.35 273.547 1054.69 275.476C1050.03 277.406 1045.04 278.399 1040 278.399V240H1078.4Z" fill="#FF6935"/>
<path d="M1760 159.999L1920 159.999V6.86646e-05H1760V159.999Z" fill="#FF6935"/>
<path d="M1600 159.999L1760 159.999V6.86646e-05L1600 0V159.999Z" fill="#FF6935"/>
<path d="M1680 79.9997C1680 35.8171 1644.18 -3.86256e-06 1600 0V159.999C1644.18 159.999 1680 124.182 1680 79.9997Z" fill="#FF6935"/>
<path d="M1659 108.001C1659 152.184 1694.82 188.001 1739 188.001V28.0015C1694.82 28.0015 1659 63.8186 1659 108.001Z" fill="#FF6935"/>
<path d="M1440 160L1600 160V0.000312805H1440V160Z" fill="#FF6935"/>
<path d="M1520 159.999L1600 160L1600 79.9998H1520V159.999Z" fill="#FF6935"/>
<path d="M1579.2 120C1579.2 130.603 1570.6 139.199 1560 139.199C1549.39 139.199 1540.8 130.603 1540.8 120C1540.8 109.396 1549.39 100.8 1560 100.8C1570.6 100.8 1579.2 109.396 1579.2 120Z" fill="#FF6935"/>
<path d="M1440 160L1520 159.999V79.9998C1520 35.8172 1484.18 0.000312805 1440 0.000312805V160Z" fill="#FF6935"/>
<path d="M1840 79.9998L1920 6.86646e-05H1760L1840 79.9998Z" fill="#FF6935"/>
<path d="M1840 159.999L1920 79.9997H1760L1840 159.999Z" fill="#FF6935"/>
<path d="M1600 319.998H1760V159.999L1600 160L1600 319.998Z" fill="#FF6935"/>
<path d="M1599.66 320.336L1759.66 320.335L1599.66 160.336V320.336Z" fill="#FF6935"/>
<path d="M1636 239.999L1680 283.999L1724 239.999L1680 195.999L1636 239.999Z" fill="#FF6935"/>
<path d="M1760 319.998H1920L1920 159.999L1760 159.999L1760 319.998Z" fill="#FF6935"/>
<path d="M1840 319.999L1920 319.998L1920 239.999H1840V319.999Z" fill="#FF6935"/>
<path d="M1760 239.999H1840L1840 159.999L1760 159.999L1760 239.999Z" fill="#FF6935"/>
<path d="M1760 319.998L1840 319.999V239.999C1795.82 239.999 1760 275.816 1760 319.998Z" fill="#FF6935"/>
<path d="M1840 239.999H1920L1920 159.999C1875.82 159.999 1840 195.816 1840 239.999Z" fill="#FF6935"/>
<path d="M1440 319.999L1600 319.998L1600 160L1440 160V319.999Z" fill="#FF6935"/>
<path d="M1600 239.999C1600 224.177 1595.31 208.709 1586.52 195.554C1577.73 182.398 1565.23 172.144 1550.61 166.089C1536 160.034 1519.91 158.45 1504.39 161.536C1488.87 164.623 1474.62 172.243 1463.43 183.431C1452.24 194.619 1444.62 208.873 1441.54 224.392C1438.45 239.91 1440.03 255.995 1446.09 270.613C1452.14 285.231 1462.4 297.726 1475.55 306.516C1488.71 315.307 1504.18 319.999 1520 319.999V239.999H1600Z" fill="#FF6935"/>
<path d="M1558.4 239.999C1558.4 232.404 1556.15 224.98 1551.93 218.665C1547.71 212.35 1541.71 207.429 1534.69 204.522C1527.68 201.616 1519.96 200.855 1512.51 202.337C1505.06 203.819 1498.22 207.476 1492.85 212.846C1487.48 218.217 1483.82 225.059 1482.34 232.508C1480.85 239.956 1481.62 247.677 1484.52 254.694C1487.43 261.711 1492.35 267.708 1498.66 271.927C1504.98 276.147 1512.4 278.399 1520 278.399V239.999H1558.4Z" fill="#FF6935"/>
<path d="M1520 319.999L1600 319.998L1600 239.999H1520V319.999Z" fill="#FF6935"/>
<path d="M1558.4 239.999C1558.4 245.042 1557.41 250.035 1555.48 254.694C1553.55 259.353 1550.72 263.586 1547.15 267.152C1543.59 270.718 1539.35 273.546 1534.69 275.476C1530.03 277.406 1525.04 278.399 1520 278.399V239.999H1558.4Z" fill="#FF6935"/>
<path d="M320 800.003H479.999V640.003H320V800.003Z" fill="#FF6935"/>
<path d="M160 800.002L320 800.003V640.003L160 640.003V800.002Z" fill="#FF6935"/>
<path d="M240 720.003C240 675.82 204.183 640.003 160 640.003V800.002C204.183 800.002 240 764.185 240 720.003Z" fill="#FF6935"/>
<path d="M240 720.003C240 764.185 275.817 800.003 320 800.003V640.003C275.817 640.003 240 675.82 240 720.003Z" fill="#FF6935"/>
<path d="M3.59889e-05 800.002H159.999V640.003H3.59889e-05V800.002Z" fill="#FF6935"/>
<path d="M79.9991 800.003H159.999V720.003H79.9991V800.003Z" fill="#FF6935"/>
<path d="M139.198 760.003C139.198 770.607 130.602 779.203 119.999 779.203C109.395 779.203 100.799 770.607 100.799 760.003C100.799 749.399 109.395 740.803 119.999 740.803C130.602 740.803 139.198 749.399 139.198 760.003Z" fill="#FF6935"/>
<path d="M3.59889e-05 800.002H79.9996V720.002C79.9996 675.82 44.1826 640.003 3.59889e-05 640.003V800.002Z" fill="#FF6935"/>
<path d="M399.999 720.003L479.999 640.003H320L399.999 720.003Z" fill="#FF6935"/>
<path d="M399.999 800.003L479.999 720.003H320L399.999 800.003Z" fill="#FF6935"/>
<path d="M159.999 960.002H319.998V800.003L159.999 800.003L159.999 960.002Z" fill="#FF6935"/>
<path d="M159.663 960.339H319.662L159.663 800.34L159.663 960.339Z" fill="#FF6935"/>
<path d="M196 880.002L239.999 924.002L283.999 880.002L239.999 836.003L196 880.002Z" fill="#FF6935"/>
<path d="M319.999 960.002H479.999L479.999 800.003H320L319.999 960.002Z" fill="#FF6935"/>
<path d="M399.999 960.002L479.999 960.002L479.998 880.002H399.999V960.002Z" fill="#FF6935"/>
<path d="M319.998 880.002H399.999L399.998 800.003L319.998 800.003L319.998 880.002Z" fill="#FF6935"/>
<path d="M319.999 960.002L399.999 960.002V880.002C355.816 880.002 319.999 915.819 319.999 960.002Z" fill="#FF6935"/>
<path d="M399.999 880.002H479.998L479.999 800.003C435.816 800.003 399.999 835.82 399.999 880.002Z" fill="#FF6935"/>
<path d="M3.59889e-05 960.002L159.999 960.002L159.999 800.003L3.59889e-05 800.003V960.002Z" fill="#FF6935"/>
<path d="M159.999 880.002C159.999 864.18 155.307 848.713 146.517 835.557C137.726 822.401 125.232 812.147 110.614 806.092C95.9962 800.037 79.9109 798.453 64.3925 801.54C48.8741 804.627 34.6195 812.246 23.4314 823.434C12.2432 834.622 4.62401 848.877 1.53721 864.395C-1.5496 879.914 0.0346627 895.999 6.08964 910.617C12.1446 925.235 22.3984 937.729 35.5542 946.52C48.7101 955.31 64.1772 960.002 79.9996 960.002V880.002H159.999Z" fill="#FF6935"/>
<path d="M118.398 880.003C118.398 872.408 116.146 864.984 111.927 858.669C107.707 852.354 101.71 847.432 94.6936 844.526C87.6769 841.619 79.956 840.859 72.5072 842.341C65.0583 843.822 58.2161 847.479 52.8458 852.85C47.4755 858.22 43.8183 865.062 42.3366 872.511C40.855 879.96 41.6154 887.681 44.5218 894.698C47.4282 901.714 52.35 907.711 58.6648 911.931C64.9796 916.15 72.4038 918.402 79.9986 918.402V880.003H118.398Z" fill="#FF6935"/>
<path d="M79.9996 960.002L159.999 960.002L159.999 880.002L79.9986 880.003L79.9996 960.002Z" fill="#FF6935"/>
<path d="M118.398 880.003C118.398 885.045 117.405 890.039 115.475 894.698C113.546 899.356 110.717 903.59 107.151 907.155C103.586 910.721 99.3524 913.55 94.6936 915.479C90.0347 917.409 85.0413 918.402 79.9986 918.402V880.003H118.398Z" fill="#FF6935"/>
<path d="M800 799.999H959.999V640H800V799.999Z" fill="#FF6935"/>
<path d="M640 799.999L800 799.999V640L640 640V799.999Z" fill="#FF6935"/>
<path d="M720 719.999C720 675.817 684.183 640 640 640V799.999C684.183 799.999 720 764.182 720 719.999Z" fill="#FF6935"/>
<path d="M720 719.999C720 764.182 755.817 799.999 800 799.999V640C755.817 640 720 675.817 720 719.999Z" fill="#FF6935"/>
<path d="M480 800H639.999V640H480V800Z" fill="#FF6935"/>
<path d="M559.999 799.999L639.999 800L639.999 720H559.999V799.999Z" fill="#FF6935"/>
<path d="M619.198 760C619.198 770.603 610.602 779.2 599.998 779.2C589.395 779.2 580.799 770.603 580.799 760C580.799 749.396 589.395 740.8 599.998 740.8C610.602 740.8 619.198 749.396 619.198 760Z" fill="#FF6935"/>
<path d="M480 800L559.999 799.999V720C559.999 675.817 524.182 640 480 640V800Z" fill="#FF6935"/>
<path d="M879.999 720L959.999 640H800L879.999 720Z" fill="#FF6935"/>
<path d="M879.999 799.999L959.999 720H800L879.999 799.999Z" fill="#FF6935"/>
<path d="M639.999 959.999H799.998V799.999L639.999 800L639.999 959.999Z" fill="#FF6935"/>
<path d="M639.662 960.336H799.661L639.662 800.336L639.662 960.336Z" fill="#FF6935"/>
<path d="M675.999 879.999L719.999 923.999L763.999 879.999L719.999 835.999L675.999 879.999Z" fill="#FF6935"/>
<path d="M800 959.999H959.999L959.999 799.999H800L800 959.999Z" fill="#FF6935"/>
<path d="M879.999 959.999L959.999 959.999L959.999 879.999H879.999V959.999Z" fill="#FF6935"/>
<path d="M799.999 879.999H879.999L879.999 799.999L799.998 799.999L799.999 879.999Z" fill="#FF6935"/>
<path d="M800 959.999L879.999 959.999V879.999C835.816 879.999 800 915.816 800 959.999Z" fill="#FF6935"/>
<path d="M879.999 879.999H959.999L959.999 799.999C915.816 799.999 879.999 835.816 879.999 879.999Z" fill="#FF6935"/>
<path d="M480 959.999L639.999 959.999L639.999 800H480V959.999Z" fill="#FF6935"/>
<path d="M639.999 879.999C639.999 864.177 635.307 848.71 626.517 835.554C617.726 822.398 605.232 812.144 590.614 806.089C575.996 800.034 559.911 798.45 544.392 801.537C528.874 804.623 514.619 812.243 503.431 823.431C492.243 834.619 484.624 848.873 481.537 864.392C478.45 879.91 480.035 895.996 486.09 910.614C492.145 925.232 502.398 937.726 515.554 946.516C528.71 955.307 544.177 959.999 560 959.999V879.999H639.999Z" fill="#FF6935"/>
<path d="M598.398 879.999C598.398 872.404 596.146 864.98 591.927 858.665C587.707 852.351 581.71 847.429 574.693 844.522C567.677 841.616 559.956 840.856 552.507 842.337C545.058 843.819 538.216 847.476 532.846 852.846C527.475 858.217 523.818 865.059 522.336 872.508C520.855 879.957 521.615 887.677 524.522 894.694C527.428 901.711 532.35 907.708 538.665 911.927C544.979 916.147 552.404 918.399 559.998 918.399V879.999H598.398Z" fill="#FF6935"/>
<path d="M560 959.999L639.999 959.999L639.999 879.999L559.998 879.999L560 959.999Z" fill="#FF6935"/>
<path d="M598.398 879.999C598.398 885.042 597.405 890.035 595.475 894.694C593.546 899.353 590.717 903.586 587.151 907.152C583.586 910.718 579.352 913.546 574.693 915.476C570.035 917.406 565.041 918.399 559.998 918.399V879.999H598.398Z" fill="#FF6935"/>
<path d="M1280 799.999H1440V640H1280V799.999Z" fill="#FF6935"/>
<path d="M1120 799.999L1280 799.999V640L1120 640V799.999Z" fill="#FF6935"/>
<path d="M1200 719.999C1200 675.817 1164.18 640 1120 640V799.999C1164.18 799.999 1200 764.182 1200 719.999Z" fill="#FF6935"/>
<path d="M1200 719.999C1200 764.182 1235.82 799.999 1280 799.999V640C1235.82 640 1200 675.817 1200 719.999Z" fill="#FF6935"/>
<path d="M960 800H1120V640H960V800Z" fill="#FF6935"/>
<path d="M1040 799.999L1120 800L1120 720H1040V799.999Z" fill="#FF6935"/>
<path d="M1099.2 760C1099.2 770.603 1090.6 779.2 1080 779.2C1069.39 779.2 1060.8 770.603 1060.8 760C1060.8 749.396 1069.39 740.8 1080 740.8C1090.6 740.8 1099.2 749.396 1099.2 760Z" fill="#FF6935"/>
<path d="M960 800L1040 799.999V720C1040 675.817 1004.18 640 960 640V800Z" fill="#FF6935"/>
<path d="M1360 720L1440 640H1280L1360 720Z" fill="#FF6935"/>
<path d="M1360 799.999L1440 720H1280L1360 799.999Z" fill="#FF6935"/>
<path d="M1120 959.999H1280V799.999L1120 800L1120 959.999Z" fill="#FF6935"/>
<path d="M1119.66 960.336H1279.66L1119.66 800.336V960.336Z" fill="#FF6935"/>
<path d="M1156 879.999L1200 923.999L1244 879.999L1200 835.999L1156 879.999Z" fill="#FF6935"/>
<path d="M1280 959.999H1440L1440 799.999H1280L1280 959.999Z" fill="#FF6935"/>
<path d="M1360 959.999L1440 959.999L1440 879.999H1360V959.999Z" fill="#FF6935"/>
<path d="M1280 879.999H1360L1360 799.999L1280 799.999L1280 879.999Z" fill="#FF6935"/>
<path d="M1280 959.999L1360 959.999V879.999C1315.82 879.999 1280 915.816 1280 959.999Z" fill="#FF6935"/>
<path d="M1360 879.999H1440L1440 799.999C1395.82 799.999 1360 835.816 1360 879.999Z" fill="#FF6935"/>
<path d="M960 959.999L1120 959.999L1120 800H960V959.999Z" fill="#FF6935"/>
<path d="M1120 879.999C1120 864.177 1115.31 848.71 1106.52 835.554C1097.73 822.398 1085.23 812.144 1070.61 806.089C1056 800.034 1039.91 798.45 1024.39 801.537C1008.87 804.623 994.62 812.243 983.431 823.431C972.243 834.619 964.624 848.873 961.537 864.392C958.45 879.91 960.035 895.996 966.09 910.614C972.145 925.232 982.398 937.726 995.554 946.516C1008.71 955.307 1024.18 959.999 1040 959.999V879.999H1120Z" fill="#FF6935"/>
<path d="M1078.4 879.999C1078.4 872.404 1076.15 864.98 1071.93 858.665C1067.71 852.351 1061.71 847.429 1054.69 844.522C1047.68 841.616 1039.96 840.856 1032.51 842.337C1025.06 843.819 1018.22 847.476 1012.85 852.846C1007.48 858.217 1003.82 865.059 1002.34 872.508C1000.85 879.957 1001.62 887.677 1004.52 894.694C1007.43 901.711 1012.35 907.708 1018.66 911.927C1024.98 916.147 1032.4 918.399 1040 918.399V879.999H1078.4Z" fill="#FF6935"/>
<path d="M1040 959.999L1120 959.999L1120 879.999L1040 879.999L1040 959.999Z" fill="#FF6935"/>
<path d="M1078.4 879.999C1078.4 885.042 1077.41 890.035 1075.48 894.694C1073.55 899.353 1070.72 903.586 1067.15 907.152C1063.59 910.718 1059.35 913.546 1054.69 915.476C1050.03 917.406 1045.04 918.399 1040 918.399V879.999H1078.4Z" fill="#FF6935"/>
<path d="M1760 799.999H1920V640H1760V799.999Z" fill="#FF6935"/>
<path d="M1600 799.999L1760 799.999V640L1600 640V799.999Z" fill="#FF6935"/>
<path d="M1680 719.999C1680 675.817 1644.18 640 1600 640V799.999C1644.18 799.999 1680 764.182 1680 719.999Z" fill="#FF6935"/>
<path d="M1680 719.999C1680 764.182 1715.82 799.999 1760 799.999V640C1715.82 640 1680 675.817 1680 719.999Z" fill="#FF6935"/>
<path d="M1440 800H1600V640H1440V800Z" fill="#FF6935"/>
<path d="M1520 799.999L1600 800L1600 720H1520V799.999Z" fill="#FF6935"/>
<path d="M1579.2 760C1579.2 770.603 1570.6 779.2 1560 779.2C1549.39 779.2 1540.8 770.603 1540.8 760C1540.8 749.396 1549.39 740.8 1560 740.8C1570.6 740.8 1579.2 749.396 1579.2 760Z" fill="#FF6935"/>
<path d="M1440 800L1520 799.999V720C1520 675.817 1484.18 640 1440 640V800Z" fill="#FF6935"/>
<path d="M1840 720L1920 640H1760L1840 720Z" fill="#FF6935"/>
<path d="M1840 799.999L1920 720H1760L1840 799.999Z" fill="#FF6935"/>
<path d="M1600 959.999H1760V799.999L1600 800L1600 959.999Z" fill="#FF6935"/>
<path d="M1599.66 960.336H1759.66L1599.66 800.336V960.336Z" fill="#FF6935"/>
<path d="M1636 879.999L1680 923.999L1724 879.999L1680 835.999L1636 879.999Z" fill="#FF6935"/>
<path d="M1760 959.999H1920L1920 799.999H1760L1760 959.999Z" fill="#FF6935"/>
<path d="M1840 959.999L1920 959.999L1920 879.999H1840V959.999Z" fill="#FF6935"/>
<path d="M1760 879.999H1840L1840 799.999L1760 799.999L1760 879.999Z" fill="#FF6935"/>
<path d="M1760 959.999L1840 959.999V879.999C1795.82 879.999 1760 915.816 1760 959.999Z" fill="#FF6935"/>
<path d="M1840 879.999H1920L1920 799.999C1875.82 799.999 1840 835.816 1840 879.999Z" fill="#FF6935"/>
<path d="M1440 959.999L1600 959.999L1600 800H1440V959.999Z" fill="#FF6935"/>
<path d="M1600 879.999C1600 864.177 1595.31 848.71 1586.52 835.554C1577.73 822.398 1565.23 812.144 1550.61 806.089C1536 800.034 1519.91 798.45 1504.39 801.537C1488.87 804.623 1474.62 812.243 1463.43 823.431C1452.24 834.619 1444.62 848.873 1441.54 864.392C1438.45 879.91 1440.03 895.996 1446.09 910.614C1452.14 925.232 1462.4 937.726 1475.55 946.516C1488.71 955.307 1504.18 959.999 1520 959.999V879.999H1600Z" fill="#FF6935"/>
<path d="M1558.4 879.999C1558.4 872.404 1556.15 864.98 1551.93 858.665C1547.71 852.351 1541.71 847.429 1534.69 844.522C1527.68 841.616 1519.96 840.856 1512.51 842.337C1505.06 843.819 1498.22 847.476 1492.85 852.846C1487.48 858.217 1483.82 865.059 1482.34 872.508C1480.85 879.957 1481.62 887.677 1484.52 894.694C1487.43 901.711 1492.35 907.708 1498.66 911.927C1504.98 916.147 1512.4 918.399 1520 918.399V879.999H1558.4Z" fill="#FF6935"/>
<path d="M1520 959.999L1600 959.999L1600 879.999L1520 879.999L1520 959.999Z" fill="#FF6935"/>
<path d="M1558.4 879.999C1558.4 885.042 1557.41 890.035 1555.48 894.694C1553.55 899.353 1550.72 903.586 1547.15 907.152C1543.59 910.718 1539.35 913.546 1534.69 915.476C1530.03 917.406 1525.04 918.399 1520 918.399V879.999H1558.4Z" fill="#FF6935"/>
<path d="M0.00137488 480.001H160.001V320.002H0.00137488V480.001Z" fill="#FF6935"/>
<path d="M80.0003 400.002L159.999 320.002L0.00137488 320.002L80.0003 400.002Z" fill="#FF6935"/>
<path d="M80.0003 400.002L0.00137488 480.001H160.001L80.0003 400.002Z" fill="#FF6935"/>
<path d="M160.001 480.001H319.999L319.999 320.002L160.001 320.002V480.001Z" fill="#FF6935"/>
<path d="M227.2 430.801C227.2 420.86 219.142 412.802 209.201 412.802C199.259 412.802 191.201 420.86 191.201 430.801C191.201 440.743 199.259 448.801 209.201 448.801C219.142 448.801 227.2 440.743 227.2 430.801Z" fill="#FF6935"/>
<path d="M288.8 430.801C288.8 420.86 280.741 412.801 270.8 412.801C260.859 412.801 252.8 420.86 252.8 430.801C252.8 440.742 260.859 448.801 270.8 448.801C280.741 448.801 288.8 440.742 288.8 430.801Z" fill="#FF6935"/>
<path d="M227.2 369.202C227.2 359.261 219.142 351.202 209.201 351.202C199.259 351.202 191.201 359.261 191.201 369.202C191.201 379.143 199.259 387.202 209.201 387.202C219.142 387.202 227.2 379.143 227.2 369.202Z" fill="#FF6935"/>
<path d="M288.8 369.202C288.8 359.261 280.741 351.202 270.8 351.202C260.859 351.202 252.8 359.261 252.8 369.202C252.8 379.143 260.859 387.202 270.8 387.202C280.741 387.202 288.8 379.143 288.8 369.202Z" fill="#FF6935"/>
<path d="M320.001 480.001H480V320.002H320.001V480.001Z" fill="#FF6935"/>
<path d="M479.99 320.002H320.001L319.999 480.001C408.364 480.001 479.999 409.154 479.999 321.76C479.999 321.173 479.996 320.587 479.99 320.002Z" fill="#FF6935"/>
<path d="M399.987 320.002L320.001 320.002L320 401.405C364.182 401.405 399.999 365.588 399.999 321.406C399.999 320.937 399.995 320.469 399.987 320.002Z" fill="#FF6935"/>
<path d="M480.001 479.998H640V319.999H480.001V479.998Z" fill="#FF6935"/>
<path d="M560 399.999L640 319.999H480.001L560 399.999Z" fill="#FF6935"/>
<path d="M560 399.999L480 479.998H639.999L560 399.999Z" fill="#FF6935"/>
<path d="M639.999 479.998L799.999 479.998L800 319.999L640 319.999L639.999 479.998Z" fill="#FF6935"/>
<path d="M707.2 430.799C707.2 420.857 699.141 412.799 689.2 412.799C679.259 412.799 671.2 420.857 671.2 430.799C671.2 440.74 679.259 448.798 689.2 448.798C699.141 448.798 707.2 440.74 707.2 430.799Z" fill="#FF6935"/>
<path d="M768.799 430.798C768.799 420.857 760.74 412.798 750.799 412.798C740.858 412.798 732.799 420.857 732.799 430.798C732.799 440.739 740.858 448.798 750.799 448.798C760.74 448.798 768.799 440.739 768.799 430.798Z" fill="#FF6935"/>
<path d="M707.2 369.199C707.2 359.258 699.141 351.199 689.2 351.199C679.259 351.199 671.2 359.258 671.2 369.199C671.2 379.14 679.259 387.199 689.2 387.199C699.141 387.199 707.2 379.14 707.2 369.199Z" fill="#FF6935"/>
<path d="M768.799 369.199C768.799 359.258 760.74 351.199 750.799 351.199C740.858 351.199 732.799 359.258 732.799 369.199C732.799 379.14 740.858 387.199 750.799 387.199C760.74 387.199 768.799 379.14 768.799 369.199Z" fill="#FF6935"/>
<path d="M800 479.998H960L959.999 319.999H800L800 479.998Z" fill="#FF6935"/>
<path d="M959.989 319.999L800 319.999L800 479.998C888.366 479.998 959.999 409.151 959.999 321.757C959.999 321.17 959.996 320.584 959.989 319.999Z" fill="#FF6935"/>
<path d="M879.986 319.999L800 319.999L799.999 401.402C844.182 401.402 879.998 365.585 879.998 321.403C879.998 320.934 879.994 320.466 879.986 319.999Z" fill="#FF6935"/>
<path d="M960.001 479.998H1120V319.999H960.001V479.998Z" fill="#FF6935"/>
<path d="M1040 399.999L1120 319.999H960.001L1040 399.999Z" fill="#FF6935"/>
<path d="M1040 399.999L960 479.998L1120 479.998L1040 399.999Z" fill="#FF6935"/>
<path d="M1120 479.998H1280L1280 319.999L1120 319.999V479.998Z" fill="#FF6935"/>
<path d="M1187.2 430.799C1187.2 420.857 1179.14 412.799 1169.2 412.799C1159.26 412.799 1151.2 420.857 1151.2 430.799C1151.2 440.74 1159.26 448.798 1169.2 448.798C1179.14 448.798 1187.2 440.74 1187.2 430.799Z" fill="#FF6935"/>
<path d="M1248.8 430.798C1248.8 420.857 1240.74 412.798 1230.8 412.798C1220.86 412.798 1212.8 420.857 1212.8 430.798C1212.8 440.739 1220.86 448.798 1230.8 448.798C1240.74 448.798 1248.8 440.739 1248.8 430.798Z" fill="#FF6935"/>
<path d="M1187.2 369.199C1187.2 359.258 1179.14 351.199 1169.2 351.199C1159.26 351.199 1151.2 359.258 1151.2 369.199C1151.2 379.14 1159.26 387.199 1169.2 387.199C1179.14 387.199 1187.2 379.14 1187.2 369.199Z" fill="#FF6935"/>
<path d="M1248.8 369.199C1248.8 359.258 1240.74 351.199 1230.8 351.199C1220.86 351.199 1212.8 359.258 1212.8 369.199C1212.8 379.14 1220.86 387.199 1230.8 387.199C1240.74 387.199 1248.8 379.14 1248.8 369.199Z" fill="#FF6935"/>
<path d="M1280 479.998H1440L1440 319.999L1280 319.999V479.998Z" fill="#FF6935"/>
<path d="M1439.99 319.999H1280L1280 479.998L1280 479.998C1368.37 479.998 1440 409.151 1440 321.757C1440 321.17 1440 320.584 1439.99 319.999Z" fill="#FF6935"/>
<path d="M1359.99 319.999L1280 319.999L1280 401.402C1324.18 401.402 1360 365.585 1360 321.403C1360 320.934 1359.99 320.466 1359.99 319.999Z" fill="#FF6935"/>
<path d="M1440 479.998H1600V319.999H1440V479.998Z" fill="#FF6935"/>
<path d="M1520 399.998L1600 319.999H1440L1520 399.998Z" fill="#FF6935"/>
<path d="M1520 399.998L1440 479.998L1600 479.998L1520 399.998Z" fill="#FF6935"/>
<path d="M1600 479.998H1760L1760 319.998L1600 319.999V479.998Z" fill="#FF6935"/>
<path d="M1667.2 430.798C1667.2 420.857 1659.14 412.798 1649.2 412.798C1639.26 412.798 1631.2 420.857 1631.2 430.798C1631.2 440.739 1639.26 448.798 1649.2 448.798C1659.14 448.798 1667.2 440.739 1667.2 430.798Z" fill="#FF6935"/>
<path d="M1728.8 430.798C1728.8 420.857 1720.74 412.798 1710.8 412.798C1700.86 412.798 1692.8 420.857 1692.8 430.798C1692.8 440.739 1700.86 448.798 1710.8 448.798C1720.74 448.798 1728.8 440.739 1728.8 430.798Z" fill="#FF6935"/>
<path d="M1667.2 369.198C1667.2 359.257 1659.14 351.198 1649.2 351.198C1639.26 351.198 1631.2 359.257 1631.2 369.198C1631.2 379.139 1639.26 387.198 1649.2 387.198C1659.14 387.198 1667.2 379.139 1667.2 369.198Z" fill="#FF6935"/>
<path d="M1728.8 369.198C1728.8 359.257 1720.74 351.198 1710.8 351.198C1700.86 351.198 1692.8 359.257 1692.8 369.198C1692.8 379.139 1700.86 387.198 1710.8 387.198C1720.74 387.198 1728.8 379.139 1728.8 369.198Z" fill="#FF6935"/>
<path d="M1760 479.998H1920V319.999H1760V479.998Z" fill="#FF6935"/>
<path d="M1919.99 319.999H1760L1760 479.998L1760 479.998C1848.37 479.998 1920 409.151 1920 321.757C1920 321.17 1920 320.584 1919.99 319.999Z" fill="#FF6935"/>
<path d="M1839.99 319.999L1760 319.998L1760 401.402C1804.18 401.401 1840 365.584 1840 321.402C1840 320.933 1839.99 320.465 1839.99 319.999Z" fill="#FF6935"/>
<path d="M0.000665506 640.004L160 640.003L160 480.004H0.000665506V640.004Z" fill="#FF6935"/>
<path d="M80.0008 640.004L160 640.003L160 560.004H80.0008V640.004Z" fill="#FF6935"/>
<path d="M80.0008 560.004H160L160 480.004L80.0008 480.005V560.004Z" fill="#FF6935"/>
<path d="M80.0008 560.004L160 480.004H0.000665506L80.0008 560.004Z" fill="#FF6935"/>
<path d="M159.999 640.003L320 640.003L319.999 480.004L160 480.004L159.999 640.003Z" fill="#FF6935"/>
<path d="M159.663 640.003H319.662L159.663 480.004L159.663 640.003Z" fill="#FF6935"/>
<path d="M240 560.004L160 640.003L320 640.003L240 560.004Z" fill="#FF6935"/>
<path d="M246.4 532.004H298.399V514.404H246.4V532.004Z" fill="#FF6935"/>
<path d="M320 640.003H479.999V480.004L319.999 480.004L320 640.003Z" fill="#FF6935"/>
<path d="M359.999 600.004H439.999V520.004H359.999V600.004Z" fill="#FF6935"/>
<path d="M479.999 480.004L319.999 480.004L479.999 640.003V480.004Z" fill="#FF6935"/>
<path d="M419.999 540.804H479.999V480.804H419.999V540.804Z" fill="#FF6935"/>
<path d="M480 640H639.999L640 480.001L480 480.001L480 640Z" fill="#FF6935"/>
<path d="M560.001 640L640 640L640 560.001H560.001V640Z" fill="#FF6935"/>
<path d="M560.001 560.001H640L640 480.001L560.001 480.001V560.001Z" fill="#FF6935"/>
<path d="M560.001 560.001L640 480.001L480 480.001L560.001 560.001Z" fill="#FF6935"/>
<path d="M639.999 640L800 640L799.999 480.001L640 480.001L639.999 640Z" fill="#FF6935"/>
<path d="M639.662 640H799.661L639.662 480.001L639.662 640Z" fill="#FF6935"/>
<path d="M720 560L640 640L800 640L720 560Z" fill="#FF6935"/>
<path d="M726.4 532H778.399V514.4H726.4V532Z" fill="#FF6935"/>
<path d="M800 640H959.999V480.001L799.999 480.001L800 640Z" fill="#FF6935"/>
<path d="M839.999 600H919.999V520.001H839.999V600Z" fill="#FF6935"/>
<path d="M959.999 480.001L799.999 480.001L959.999 640V480.001Z" fill="#FF6935"/>
<path d="M899.999 540.801H959.999V480.801H899.999V540.801Z" fill="#FF6935"/>
<path d="M960 640H1120L1120 480.001H960.001L960 640Z" fill="#FF6935"/>
<path d="M1040 640L1120 640L1120 560.001H1040V640Z" fill="#FF6935"/>
<path d="M1040 560.001H1120L1120 480.001L1040 480.001V560.001Z" fill="#FF6935"/>
<path d="M1040 560.001L1120 480.001H960.001L1040 560.001Z" fill="#FF6935"/>
<path d="M1120 640L1280 640L1280 480.001L1120 480.001L1120 640Z" fill="#FF6935"/>
<path d="M1119.66 640H1279.66L1119.66 480.001V640Z" fill="#FF6935"/>
<path d="M1200 560L1120 640L1280 640L1200 560Z" fill="#FF6935"/>
<path d="M1206.4 532H1258.4V514.4H1206.4V532Z" fill="#FF6935"/>
<path d="M1280 640H1440V480.001L1280 480.001L1280 640Z" fill="#FF6935"/>
<path d="M1320 600H1400V520.001H1320V600Z" fill="#FF6935"/>
<path d="M1440 480.001L1280 480.001L1440 640V480.001Z" fill="#FF6935"/>
<path d="M1380 540.801H1440V480.801H1380V540.801Z" fill="#FF6935"/>
<path d="M1440 640L1600 640L1600 480.001H1440L1440 640Z" fill="#FF6935"/>
<path d="M1520 640L1600 640L1600 560.001H1520V640Z" fill="#FF6935"/>
<path d="M1520 560.001H1600L1600 480.001L1520 480.001V560.001Z" fill="#FF6935"/>
<path d="M1520 560.001L1600 480.001H1440L1520 560.001Z" fill="#FF6935"/>
<path d="M1600 640L1760 640L1760 480.001L1600 480.001L1600 640Z" fill="#FF6935"/>
<path d="M1599.66 640H1759.66L1599.66 480.001V640Z" fill="#FF6935"/>
<path d="M1680 560L1600 640L1760 640L1680 560Z" fill="#FF6935"/>
<path d="M1686.4 532H1738.4V514.4H1686.4V532Z" fill="#FF6935"/>
<path d="M1760 640H1920V480.001L1760 480.001L1760 640Z" fill="#FF6935"/>
<path d="M1800 600H1880V520.001H1800V600Z" fill="#FF6935"/>
<path d="M1920 480.001L1760 480.001L1920 640V480.001Z" fill="#FF6935"/>
<path d="M1860 540.801H1920V480.801H1860V540.801Z" fill="#FF6935"/>
</g>
</g>
</svg>
