<svg width="40" height="32" viewBox="0 0 40 32" fill="none" xmlns="http://www.w3.org/2000/svg">
<g clip-path="url(#clip0)">
<path d="M24.381 7.62095H3.048C1.67 7.62095 0 9.22695 0 10.667V24.383C0 25.826 1.67 27.431 3.048 27.431V32.001L15.238 27.433V24.382L6.095 27.433V24.382H3.047V10.668H24.38V27.431C25.758 27.431 27.428 25.826 27.428 24.383V10.667C27.428 9.22695 25.758 7.62095 24.38 7.62095H24.381ZM18.286 27.432H21.334V24.384H18.286V27.432ZM6.095 16.763H21.333V13.717H6.095V16.763ZM6.095 21.336H15.238V18.288H6.095V21.336ZM15.238 3.05095H39.619C39.619 1.60795 37.949 0.00195312 36.571 0.00195312H15.238C13.86 0.00195312 12.19 1.60795 12.19 3.05095V4.57795H15.238V3.05095ZM36.571 16.763L32 16.761V19.812L28.952 18.796V22.097L35.047 24.381V19.813C35.826 19.813 36.571 19.813 36.571 19.813C37.949 19.813 39.619 18.207 39.619 16.764V12.193H36.571V16.764V16.763ZM36.571 9.14395H39.619V6.09595H36.571V9.14395Z" fill="white"/>
</g>
<defs>
<clipPath id="clip0">
<rect width="40" height="32" fill="white"/>
</clipPath>
</defs>
</svg>
