<svg width="30" height="34" viewBox="0 0 30 34" fill="none" xmlns="http://www.w3.org/2000/svg">
<path d="M6.62069 26.4848V23.1724H16.5517V26.4848H6.62069ZM6.62069 16.5517H23.1724V19.8621H6.62069V16.5517ZM23.1724 26.4848V33.1034H0V3.31034C0 1.48345 1.48345 0 3.31035 0H26.4828C28.3097 0 29.7931 1.48345 29.7931 3.31034V13.2414H3.31035V29.7952H19.8621V23.1724H29.7931V26.4848H23.1724ZM26.4828 9.93103V3.31034H3.31035V9.93103H26.4828ZM8.27586 8.27586H4.96552V4.96552H8.27586V8.27586ZM13.2414 8.27586H9.93104V4.96552H13.2414V8.27586ZM18.2069 8.27586H14.8966V4.96552H18.2069V8.27586ZM26.4828 16.5517H29.7931V19.8621H26.4828V16.5517Z" fill="#FF6935"/>
</svg>
