<svg width="31" height="37" viewBox="0 0 31 37" fill="none" xmlns="http://www.w3.org/2000/svg">
<path d="M26.8546 36.9231H30.2112V33.5677H26.8546V36.9231ZM26.8546 3.35885H23.4981V1.67885C23.4981 0.752308 22.7481 0 21.8192 0C20.8904 0 20.1404 0.752308 20.1404 1.67885V3.35769H10.0708V1.67885C10.0708 0.752308 9.31846 0 8.39192 0C7.46423 0 6.71308 0.752308 6.71308 1.67885V3.35769H3.35654C1.50346 3.35769 0 4.86 0 6.71423V33.5677C0 35.4219 1.50346 36.9242 3.35654 36.9242H23.4969V33.5688H3.35654V6.71423H6.71308V8.39308C6.71308 9.31962 7.46308 10.0719 8.39192 10.0719C9.31846 10.0719 10.0708 9.31962 10.0708 8.39308V6.71423H20.1404V8.39308C20.1404 9.31962 20.8904 10.0719 21.8192 10.0719C22.7481 10.0719 23.4981 9.31962 23.4981 8.39308V6.71423H26.8546V30.2112H30.2112V6.71423C30.2112 4.86115 28.7077 3.35885 26.8546 3.35885ZM8.39308 30.21H11.7496V26.8535H8.39308V30.21ZM13.4273 30.21H16.7838V26.8535H13.4273V30.21ZM18.4627 30.21H21.8192V26.8535H18.4627V30.21ZM11.7496 21.8181H8.39308V25.1769H11.7496V21.8181ZM16.7838 21.8181H13.4273V25.1769H16.7838V21.8181ZM21.8192 21.8181H18.4627V25.1769H21.8192V21.8181ZM11.7496 16.7827H8.39308V20.1392H11.7496V16.7827ZM16.7838 16.7827H13.4273V20.1392H16.7838V16.7827ZM21.8192 16.7827H18.4627V20.1392H21.8192V16.7827Z" fill="#FF6935"/>
</svg>
