<svg width="75" height="75" viewBox="0 0 75 75" fill="none" xmlns="http://www.w3.org/2000/svg">
<g clip-path="url(#clip0)">
<path d="M5.14645 16.2525V62.6772C3.57574 63.8496 2.64935 65.6938 2.64648 67.6542V73.7505C2.64648 74.4405 3.2061 75.0002 3.89618 75.0002H31.3952C32.0858 75.0002 32.6455 74.4405 32.6455 73.7505V70.0002H37.6448C38.3355 70.0002 38.8951 69.4406 38.8951 68.7505V60.0009H68.8941C69.5841 60.0009 70.1438 59.4413 70.1438 58.7507V35.0019H71.394C72.0841 35.0019 72.6437 34.4423 72.6437 33.7516V27.6559C72.6409 25.6956 71.7145 23.8514 70.1438 22.6783V6.25263C70.1438 5.56255 69.5841 5.00293 68.8941 5.00293H64.7067C63.3334 1.10222 59.0579 -0.946277 55.1577 0.427014C53.0182 1.18061 51.3354 2.86346 50.5824 5.00293H37.6448C36.9547 5.00293 36.3951 5.56255 36.3951 6.25263V15.0022H6.39614C5.70606 15.0022 5.14645 15.5618 5.14645 16.2525ZM30.1455 72.5002H27.6455V68.7505H25.1456V72.5002H10.1458V68.7505H7.64641V72.5002H5.14645V67.6542C5.14587 65.9336 6.31661 64.4332 7.9863 64.0155L14.1982 62.4631C14.7549 62.3241 15.1457 61.8246 15.1457 61.2506V58.7507C15.1486 58.2746 14.8802 57.8386 14.4545 57.6257C13.345 57.0764 12.6435 55.9446 12.6458 54.7058V47.5011C12.6458 44.7397 14.8842 42.5012 17.6457 42.5012C20.4071 42.5012 22.6456 44.7397 22.6456 47.5011V54.7058C22.6508 55.9469 21.9487 57.0821 20.8369 57.632C20.4129 57.8437 20.1457 58.2769 20.1457 58.7507V61.2506C20.1457 61.8246 20.5365 62.3241 21.0932 62.4631L27.3056 64.0155C28.9748 64.4332 30.1455 65.9336 30.1455 67.6542V72.5002ZM65.1438 14.7075V7.5029H67.6438V21.5259L62.6444 20.2762V19.4637C64.214 18.3902 65.1507 16.609 65.1438 14.7075ZM52.6446 7.5029C52.6446 4.74144 54.8831 2.50297 57.6445 2.50297C60.4054 2.50297 62.6439 4.74144 62.6439 7.5029V14.7075C62.649 15.9481 61.9475 17.0833 60.8351 17.6338C60.4117 17.8455 60.1439 18.2787 60.1439 18.7524V21.2524C60.1445 21.8258 60.5347 22.3259 61.0915 22.4649L67.3039 24.0173C68.973 24.435 70.1443 25.9348 70.1438 27.6559V32.5019H67.6438V28.7517H65.1438V32.5019H50.1446V28.7517H47.6447V32.5019H45.1447V27.6559C45.1441 25.9348 46.3154 24.4344 47.9846 24.0173L54.197 22.4649C54.7537 22.3259 55.144 21.8258 55.1446 21.2524V18.7524C55.1446 18.2787 54.8768 17.8455 54.4533 17.6338C53.341 17.0833 52.6394 15.9481 52.6446 14.7075V7.5029ZM38.8951 7.5029H50.1446V14.7075C50.1383 16.609 51.0745 18.3902 52.6446 19.4637V20.2762L47.3797 21.5923C44.5954 22.2852 42.6419 24.7863 42.6447 27.6559V33.7516C42.6447 34.4423 43.2044 35.0019 43.895 35.0019H67.6438V57.501H38.8951V54.2686L42.2785 50.8846C42.7666 50.3965 42.7666 49.6057 42.2785 49.1176L35.6627 42.5012L38.5289 39.635C38.7635 39.401 38.8951 39.0829 38.8951 38.7516V7.5029ZM36.3951 17.5022V38.2343L33.0117 41.6177C32.5236 42.1058 32.5236 42.8972 33.0117 43.3853L39.6275 50.0011L36.7613 52.8673C36.5267 53.1013 36.3951 53.4195 36.3951 53.7508V67.5003H32.6329C32.5699 64.6913 30.6365 62.2715 27.9105 61.5905L22.6456 60.2745V59.4619C24.214 58.3902 25.1502 56.6118 25.1456 54.7121V47.5011C25.1456 43.359 21.7879 40.0013 17.6457 40.0013C13.5041 40.0013 10.1458 43.359 10.1458 47.5011V54.7058C10.1395 56.6078 11.0762 58.389 12.6458 59.4619V60.2745L7.64641 61.5242V17.5022H36.3951Z" fill="#4A6FE1"/>
<path d="M12.6458 20.002H15.1457V22.5019H12.6458V20.002Z" fill="#4A6FE1"/>
<path d="M17.6456 20.002H33.8951V22.5019H17.6456V20.002Z" fill="#4A6FE1"/>
<path d="M10.1458 25.002H33.8951V27.5019H10.1458V25.002Z" fill="#4A6FE1"/>
<path d="M10.1458 30.002H33.8951V32.5019H10.1458V30.002Z" fill="#4A6FE1"/>
<path d="M10.1458 35.002H28.8952V37.5019H10.1458V35.002Z" fill="#4A6FE1"/>
<path d="M47.6447 37.501H50.1446V40.0009H47.6447V37.501Z" fill="#4A6FE1"/>
<path d="M52.6445 37.501H65.1438V40.0009H52.6445V37.501Z" fill="#4A6FE1"/>
<path d="M45.1447 42.501H65.1438V45.0009H45.1447V42.501Z" fill="#4A6FE1"/>
<path d="M45.1447 47.501H65.1438V50.0009H45.1447V47.501Z" fill="#4A6FE1"/>
<path d="M45.1447 52.501H60.1444V55.0009H45.1447V52.501Z" fill="#4A6FE1"/>
<path d="M72.6437 60.0008C72.6437 61.3809 71.5244 62.5007 70.1437 62.5007H58.8942V65.0001H70.1437C72.9052 65.0001 75.1436 62.7616 75.1436 60.0008V45.001H72.6437V60.0008Z" fill="#4A6FE1"/>
<path d="M72.6437 40.001H75.1436V42.5009H72.6437V40.001Z" fill="#4A6FE1"/>
<path d="M2.64645 15.0019C2.64645 13.6211 3.76568 12.5019 5.14641 12.5019H16.396V10.002H5.14641C2.38495 10.002 0.146484 12.2404 0.146484 15.0019V41.2512H2.64645V15.0019Z" fill="#4A6FE1"/>
<path d="M18.8959 10.0029H21.3958V12.5029H18.8959V10.0029Z" fill="#4A6FE1"/>
</g>
<defs>
<clipPath id="clip0">
<rect width="75" height="75" fill="white"/>
</clipPath>
</defs>
</svg>
