<svg width="75" height="75" viewBox="0 0 75 75" fill="none" xmlns="http://www.w3.org/2000/svg">
<g clip-path="url(#clip0)">
<path d="M22.225 34.0904C19.4412 34.7828 17.4877 37.2845 17.49 40.1541V48.7503H19.9905V40.1541C19.9905 38.4335 21.1613 36.9337 22.8304 36.5166L29.0439 34.9625C29.6001 34.8234 29.9904 34.3239 29.9904 33.7505V31.25C29.9904 30.7762 29.7226 30.3431 29.2992 30.1313C28.1868 29.5815 27.4853 28.4462 27.4904 27.2051V20.0005C27.4904 17.239 29.7289 15.0005 32.4903 15.0005C35.2518 15.0005 37.4903 17.239 37.4903 20.0005V27.2051C37.4954 28.4462 36.7933 29.5815 35.6815 30.1313C35.2575 30.3431 34.9897 30.7762 34.9903 31.25V33.7505C34.9903 34.3239 35.3805 34.8234 35.9362 34.9625L42.1503 36.5166C43.8194 36.9337 44.9901 38.4335 44.9901 40.1541V48.7503H47.4901V40.1541C47.493 37.285 45.54 34.7834 42.7563 34.0904L37.4903 32.7738V31.9613C39.0587 30.8901 39.9954 29.1111 39.9902 27.2114V20.0005C39.9902 15.8583 36.6325 12.5 32.4903 12.5C28.3481 12.5 24.9905 15.8583 24.9905 20.0005V27.2051C24.983 29.1071 25.9197 30.8889 27.4904 31.9613V32.7738L22.225 34.0904Z" fill="#4A6FE1"/>
<path d="M22.4905 42.5H24.9904V51.2502H22.4905V42.5Z" fill="#4A6FE1"/>
<path d="M39.9902 42.5H42.4902V51.2502H39.9902V42.5Z" fill="#4A6FE1"/>
<path d="M12.4902 70.0001H59.9906C62.752 70.0001 64.9905 67.7617 64.9905 65.0002V55.0004H71.2401C71.9308 55.0004 72.4904 54.4402 72.4904 53.7501V33.7498C72.4904 30.9884 70.2519 28.7499 67.4905 28.7499H57.49V6.25027C57.49 5.55962 56.9304 5 56.2403 5H8.7405C8.04985 5 7.49023 5.55962 7.49023 6.25027V65.0002C7.49023 67.7617 9.7287 70.0001 12.4902 70.0001ZM69.9904 33.7498V52.4998H64.9905V33.7498C64.9905 32.3691 66.1097 31.2499 67.4905 31.2499C68.8712 31.2499 69.9904 32.3697 69.9904 33.7498ZM63.1852 31.2499C62.7354 32.0069 62.4957 32.8698 62.4905 33.7498V65.0002C62.4905 66.3809 61.3713 67.5002 59.9906 67.5002C58.6098 67.5002 57.49 66.3809 57.49 65.0002V31.2499H63.1852ZM9.9902 7.49996H54.9907V65.0002C54.9889 65.878 55.2207 66.7409 55.6618 67.5002H12.4902C11.1094 67.5002 9.9902 66.3809 9.9902 65.0002V7.49996Z" fill="#4A6FE1"/>
<path d="M27.4905 55H42.4902V57.5H27.4905V55Z" fill="#4A6FE1"/>
<path d="M17.49 60H47.4901V62.5H17.49V60Z" fill="#4A6FE1"/>
<path d="M22.4905 55H24.9904V57.5H22.4905V55Z" fill="#4A6FE1"/>
<path d="M11.2404 74.9997H36.24V72.4998H11.2404C7.78999 72.4958 4.9942 69.7 4.9902 66.2496V57.5H2.49023V66.2496C2.49596 71.0801 6.40984 74.994 11.2404 74.9997Z" fill="#4A6FE1"/>
<path d="M38.74 72.5H41.2405V75H38.74V72.5Z" fill="#4A6FE1"/>
<path d="M59.9906 4.99992V18.75H62.4905V4.99992C62.4905 2.23846 60.2515 0 57.49 0H46.2405V2.49996H57.4906C58.8713 2.49996 59.9906 3.61919 59.9906 4.99992Z" fill="#4A6FE1"/>
<path d="M41.2405 0H43.7404V2.49996H41.2405V0Z" fill="#4A6FE1"/>
<path d="M13.7405 11.25H21.2404V13.75H13.7405V11.25Z" fill="#4A6FE1"/>
<path d="M13.7405 16.25H21.2404V18.75H13.7405V16.25Z" fill="#4A6FE1"/>
<path d="M42.4902 11.25H51.2404V13.75H42.4902V11.25Z" fill="#4A6FE1"/>
<path d="M42.4902 16.25H51.2404V18.75H42.4902V16.25Z" fill="#4A6FE1"/>
</g>
<defs>
<clipPath id="clip0">
<rect width="75" height="75" fill="white"/>
</clipPath>
</defs>
</svg>
