<svg width="99" height="221" viewBox="0 0 99 221" fill="none" xmlns="http://www.w3.org/2000/svg">
<path d="M54.633 79.9335C55.5864 93.7935 58.373 93.1335 55.7697 105.674C55.1954 108.421 54.9614 111.229 55.073 114.034H55.0364C47.6533 111.173 42.3377 104.615 41.0664 96.8002C39.0717 88.9169 38.749 76.4759 46.7864 77.4035C49.5158 77.2578 52.2289 77.9074 54.5964 79.2735C54.5964 79.4935 54.633 79.7135 54.633 79.9335Z" fill="#E8EDFC"/>
<path d="M193.893 198.44C185.096 203.586 175.525 207.276 165.55 209.367C114.539 222.2 34.6497 217.8 3.70305 198.44H3.66638C3.66638 198.44 6.89305 183.7 21.5597 183.7C48.0331 183.7 63.0664 172.187 69.3364 165.807C70.5561 164.583 71.2752 162.949 71.3531 161.223C71.5311 155.351 70.7888 149.486 69.1531 143.843C78.2097 155.283 91.7764 169.07 104.61 163.937C113.362 160.596 122.155 151.188 127.966 143.843C126.358 149.404 125.616 155.18 125.766 160.967C125.83 162.753 126.579 164.446 127.856 165.697C134.09 172.04 149.306 183.7 176 183.7C190.666 183.7 193.893 198.44 193.893 198.44Z" fill="#CAD9FC"/>
<path d="M182.893 198.44C174.096 203.586 164.525 207.276 154.55 209.367C114.254 218.855 72.3054 218.855 32.0097 209.367C10.6991 204.039 4.28972 198.44 3.66638 198.44C3.66638 198.44 6.89305 183.7 21.5597 183.7C48.0331 183.7 63.0664 172.187 69.3364 165.807C70.5561 164.583 71.2752 162.949 71.3531 161.223C71.5311 155.351 70.7888 149.486 69.1531 143.843C78.2097 155.283 91.7764 169.07 104.61 163.937C108.311 162.407 111.74 160.29 114.766 157.667C114.175 160.523 114.948 163.491 116.856 165.697C123.09 172.04 138.306 183.7 165 183.7C179.666 183.7 182.893 198.44 182.893 198.44Z" fill="#E8EDFC"/>
<path d="M79.4565 216.15C69.989 215.639 60.5535 214.647 51.1865 213.18C50.9298 187.88 40.4065 181.94 40.2231 181.573C46.8818 180.047 53.2474 177.446 59.0698 173.873L59.1798 174.056C59.1798 174.056 61.9298 206.286 79.4565 216.15Z" fill="#E8EDFC"/>
<path d="M141.35 105.674C143.733 117.334 140.286 127.784 129.763 141.534C124.666 148.207 115.06 159.867 104.61 163.937C90.8964 169.437 76.3544 153.304 67.3564 141.534C56.8331 127.784 53.3864 117.334 55.7697 105.674C58.3731 93.1335 55.5864 93.7935 54.6331 79.9335C88.9164 72.8202 98.5597 40.7002 98.5597 40.7002C104.169 56.7143 116.153 69.6941 131.67 76.5602C135.149 78.0545 138.774 79.185 142.486 79.9335C141.533 93.7935 138.746 93.1335 141.35 105.674Z" fill="#CAD9FC"/>
<path d="M130.35 105.674C132.733 117.334 129.286 127.784 118.763 141.534C113.666 148.207 104.06 159.867 93.6097 163.937C93.0231 164.172 93.0671 164.161 92.5097 163.937C82.0597 159.867 72.4531 148.207 67.3564 141.534C56.8331 127.784 53.3864 117.334 55.7697 105.674C58.3731 93.1335 55.5864 93.7935 54.6331 79.9335C88.9164 72.8202 98.5597 40.7002 98.5597 40.7002C104.169 56.7143 116.153 69.6941 131.67 76.5602C130.973 93.9769 127.563 92.1802 130.35 105.674Z" fill="#E8EDFC"/>
<path d="M98.7798 22.3667C92.4183 9.47311 78.441 2.1821 64.2267 4.34269C50.0124 6.50328 38.8329 17.6182 36.5899 31.8197C34.3468 46.0212 41.5566 60.0405 54.4131 66.4767L98.7798 22.3667Z" fill="#E8EDFC"/>
<path d="M142.56 60.0235C141.13 24.0535 101.676 22.3668 101.676 22.3668C98.815 22.2215 95.9466 22.295 93.0964 22.5868C72.1964 24.9518 55.2747 37.9245 54.5597 60.0235C54.2182 66.6565 54.2426 73.3032 54.6331 79.9335C88.9164 72.8202 98.5597 40.7002 98.5597 40.7002C104.169 56.7142 116.153 69.6941 131.67 76.5602C135.149 78.0545 138.774 79.185 142.486 79.9335C142.877 73.3032 142.901 66.6565 142.56 60.0235Z" fill="#E8EDFC"/>
<path d="M142.486 79.9333C138.774 79.1847 135.149 78.0543 131.67 76.5599C131.816 72.3433 131.853 66.9899 131.56 60.0233C130.35 29.4799 101.676 23.6499 93.0964 22.5866C95.9454 22.2763 98.8153 22.2027 101.676 22.3666C101.676 22.3666 141.13 24.0533 142.56 60.0233C142.901 66.6562 142.877 73.303 142.486 79.9333Z" fill="#CAD9FC"/>
<path d="M69.2264 4.03321C53.9481 4.0207 40.6627 14.5061 37.1248 29.3691C33.587 44.2321 40.7236 59.5787 54.369 66.4509C54.2847 71.1259 54.369 74.8476 54.523 77.9606C55.5261 77.4392 56.6671 77.2443 57.7864 77.4032C60.5148 77.2561 63.2271 77.9058 65.5927 79.2732C65.3764 75.9256 65.2737 71.7822 65.369 66.4399C52.6525 60.0337 45.4906 46.1829 47.6146 32.1032C49.7386 18.0235 60.6676 6.90166 74.708 4.53188C72.8979 4.21287 71.0643 4.04606 69.2264 4.03321Z" fill="white"/>
<path d="M104.683 216.601C88.6105 216.473 72.5749 215.041 56.7341 212.319C25.2997 206.767 15.3337 198.44 14.6664 198.44C14.6664 198.44 17.8931 183.7 32.5597 183.7C53.7677 183.7 70.3741 175.945 80.3364 165.807C81.5561 164.584 82.2752 162.949 82.3531 161.224C82.5311 155.351 81.7888 149.487 80.1531 143.844C72.2734 133.896 65.4534 123.259 66.1427 110.792C66.0804 111.892 66.0291 112.959 66.0731 114.034H66.0364C58.6533 111.173 53.3377 104.615 52.0664 96.8002C50.5374 90.7465 50.0057 82.0345 53.4707 78.7199C51.3866 77.7324 49.0893 77.28 46.7864 77.4035C38.7491 76.4759 39.0864 88.9169 41.0664 96.8002C42.3377 104.615 47.6533 111.173 55.0364 114.034H55.0731C55.0291 112.959 55.0731 111.874 55.1427 110.792C54.4534 123.259 61.2734 133.892 69.1531 143.844C70.7888 149.487 71.5311 155.351 71.3531 161.224C71.2752 162.949 70.5561 164.584 69.3364 165.807C59.3741 175.945 42.7677 183.7 21.5597 183.7C6.89305 183.7 3.66638 198.44 3.66638 198.44C4.33372 198.44 14.2997 206.767 45.7341 212.319C65.2024 215.621 84.9418 217.055 104.683 216.601ZM72.0607 147.4C73.0947 148.625 73.0764 148.603 72.0387 147.378L72.0607 147.4Z" fill="white"/>
<path d="M46.1304 8.56885L50.7541 14.2632C43.9184 19.8531 39.9357 28.2031 39.8934 37.0332H32.5601C32.608 25.9951 37.5849 15.5557 46.1304 8.56885Z" fill="white"/>
<path d="M1.75616 201.549C21.2078 213.715 56.0412 218.453 79.2585 219.791C92.0373 220.545 104.849 220.566 117.63 219.853C117.715 219.853 117.802 219.828 117.887 219.82C141.108 218.511 176.315 213.767 195.837 201.549C197.149 200.727 197.804 199.168 197.472 197.655C195.32 187.48 186.399 180.158 176 180.033C149.871 180.033 135.465 168.223 130.486 163.145C129.857 162.543 129.477 161.728 129.419 160.86C129.291 155.674 129.925 150.496 131.299 145.493C138.119 136.851 144.199 127.34 145.431 116.494C152.984 112.849 158.285 105.749 159.632 97.4709C161.597 89.4849 162.232 76.8973 154.499 74.2756C151.854 73.5834 149.083 73.5219 146.41 74.0959C146.494 70.2349 146.465 65.5929 146.237 59.8913C144.771 23.1403 106.883 19.0849 102.164 18.7293C101.736 18.6921 101.306 18.6823 100.877 18.6999C95.5438 9.39884 86.3916 2.91228 75.8488 0.96134C65.3061 -0.989604 54.4387 1.7923 46.1302 8.56894C45.3159 9.18289 44.805 10.1174 44.7278 11.1343C44.6506 12.1512 45.0146 13.1521 45.7268 13.8819C47.0764 15.2411 49.2213 15.3975 50.7538 14.2486C56.8589 9.28093 64.7098 6.98597 72.5293 7.88318C80.3489 8.78039 87.4759 12.7939 92.2972 19.0153C82.5658 20.3316 52.2388 27.0599 50.9005 59.8326C43.9372 54.3189 39.8838 45.9189 39.9005 37.0369C39.9005 35.0119 38.2589 33.3703 36.2338 33.3703C34.2088 33.3703 32.5672 35.0119 32.5672 37.0369C32.5425 50.0212 39.4549 62.0299 50.6952 68.5299C50.6805 70.5515 50.6927 72.4068 50.7318 74.0959C44.3408 72.9959 39.6218 73.9383 37.3632 80.0506C35.9457 85.7731 35.9836 91.7595 37.4732 97.4636C38.8469 105.738 44.1513 112.83 51.6998 116.486C52.9355 127.373 59.0625 136.924 65.8238 145.486C67.2209 150.566 67.8512 155.825 67.6938 161.091C67.646 161.904 67.3016 162.671 66.7258 163.247C60.5548 169.517 46.4968 180.033 21.5598 180.033C11.1627 180.158 2.2479 187.489 0.117155 197.666C-0.209314 199.177 0.446182 200.73 1.75616 201.549ZM54.7542 210.016C54.1198 196.082 50.3945 187.95 47.1092 183.447C50.2382 182.413 53.2873 181.15 56.2318 179.67C57.4858 187.334 60.7932 201.63 68.8378 211.647C64.0272 211.2 59.3118 210.668 54.7542 210.016ZM128.253 211.691C136.393 201.575 139.689 187.092 140.917 179.472C143.889 180.963 146.964 182.241 150.117 183.297C146.817 187.777 142.996 195.961 142.362 210.085C137.797 210.731 133.067 211.255 128.253 211.691ZM189.486 196.775C176.93 202.812 163.531 206.911 149.746 208.93C150.744 193.655 155.98 187.348 157.982 185.464C163.902 186.744 169.943 187.382 176 187.367C182.023 187.359 187.409 191.118 189.479 196.775H189.486ZM150.307 81.0736C150.845 80.9926 151.394 81.0213 151.921 81.158C154.051 82.4486 153.982 89.8993 152.46 95.9089C152.412 96.1067 152.379 96.3077 152.361 96.5103C151.604 101.078 149.094 105.17 145.365 107.914C145.236 106.916 145.137 105.926 144.928 104.918C142.604 93.6796 144.91 94.5596 145.999 81.8179C147.379 81.3143 148.838 81.0622 150.307 81.0736ZM95.4395 26.0333H101.588C103.869 26.1506 137.639 28.4606 138.897 60.1809C139.143 66.4473 139.157 71.3203 139.033 75.2473C121.734 69.9572 108 56.7262 102.069 39.6366C101.6 38.0907 100.175 37.0336 98.5598 37.0336C96.9445 37.0336 95.5194 38.0907 95.0508 39.6366C89.1194 56.7281 75.3842 69.9606 58.0835 75.2509C57.9332 70.3816 58.0248 65.1603 58.2228 60.1809C59.4952 28.0499 94.1305 26.0993 95.4395 26.0333ZM44.7332 96.4919C44.6928 96.0593 42.5075 87.2409 44.2272 82.5879C44.3872 82.0155 44.7297 81.5108 45.2025 81.1506C45.5796 81.0414 45.9735 81.0017 46.3648 81.0333C47.9783 81.013 49.5856 81.2381 51.1315 81.7006C52.1985 94.3689 54.5342 93.6649 52.2058 104.907C52.0005 105.912 51.9015 106.905 51.7732 107.899C48.0428 105.147 45.5204 101.06 44.7332 96.4919ZM59.3705 106.392C61.9115 94.1343 59.6602 93.1223 58.5675 82.7309C75.9784 78.1032 90.5513 66.1984 98.5598 50.0609C106.569 66.1975 121.142 78.1019 138.552 82.7309C137.452 93.1516 135.208 94.0976 137.745 106.392C139.909 116.846 136.752 126.379 126.852 139.3C118.132 150.667 110.205 157.821 103.29 160.53C100.247 161.705 96.8761 161.705 93.8335 160.53C86.9218 157.824 78.9945 150.682 70.2678 139.3C60.3678 126.39 57.1998 116.857 59.3705 106.403V106.392ZM71.9398 168.392C75.4085 164.879 75.2398 160.871 74.9245 155.885C92.0368 172.957 105.05 172.99 122.191 155.885C121.876 160.912 121.722 164.685 125.249 168.267C127.941 170.968 130.901 173.388 134.083 175.49C133.247 181.925 129.411 204.607 116.46 212.553C104.528 213.189 92.569 213.179 80.6372 212.524C67.8332 204.673 63.9502 182.376 63.0665 175.703C66.2619 173.57 69.2347 171.12 71.9398 168.392ZM21.5598 187.367C27.5028 187.387 33.4313 186.782 39.2478 185.563C41.3415 187.576 46.3795 193.923 47.3658 208.85C33.7529 206.829 20.5249 202.757 8.13249 196.772C10.1824 191.123 15.5506 187.363 21.5598 187.367Z" fill="#428DFF"/>
<path d="M39.4788 26.4515C37.4538 26.4515 35.8121 24.8099 35.8121 22.7848C35.8121 20.7598 37.4538 19.1182 39.4788 19.1182C41.5038 19.1182 43.1455 20.7598 43.1455 22.7848C43.1455 24.8099 41.5038 26.4515 39.4788 26.4515Z" fill="#428DFF"/>
</svg>
