<svg width="253" height="253" viewBox="0 0 253 253" fill="none" xmlns="http://www.w3.org/2000/svg">
<path d="M63.0182 189.319L0.000730302 252.336L126.036 252.336L63.0182 189.319Z" fill="#005EC5"/>
<rect width="126.035" height="126.035" transform="matrix(1 0 0 -1 126.036 252.336)" fill="#A0CDFF"/>
<circle r="14.1789" transform="matrix(1 0 0 -1 164.793 213.58)" fill="#3B98FF"/>
<circle r="14.1789" transform="matrix(1 0 0 -1 213.316 213.58)" fill="white"/>
<circle r="14.1789" transform="matrix(1 0 0 -1 164.793 165.056)" fill="white"/>
<circle r="14.1789" transform="matrix(1 0 0 -1 213.316 165.056)" fill="#0060C8"/>
<rect width="126.035" height="126.035" transform="matrix(1 0 0 -1 126.3 126.035)" fill="#0050A7"/>
<path d="M252.335 63.0174C252.335 50.5538 248.639 38.37 241.714 28.0068C234.79 17.6437 224.948 9.56654 213.433 4.79691C201.918 0.0272598 189.247 -1.2207 177.023 1.21085C164.799 3.64239 153.57 9.64422 144.757 18.4574C135.944 27.2705 129.942 38.4992 127.511 50.7234C125.079 62.9475 126.327 75.6183 131.097 87.1332C135.866 98.6481 143.943 108.49 154.307 115.415C164.67 122.339 176.854 126.035 189.317 126.035L189.317 63.0174L252.335 63.0174Z" fill="#3B98FF"/>
<path d="M219.565 63.018C219.565 57.0354 217.791 51.1872 214.467 46.2129C211.143 41.2386 206.419 37.3615 200.892 35.0721C195.365 32.7827 189.283 32.1837 183.415 33.3508C177.547 34.518 172.158 37.3988 167.927 41.6291C163.697 45.8595 160.816 51.2492 159.649 57.1168C158.482 62.9844 159.081 69.0664 161.37 74.5935C163.66 80.1207 167.537 84.8449 172.511 88.1686C177.485 91.4923 183.334 93.2664 189.316 93.2664L189.316 63.018L219.565 63.018Z" fill="#0060C8"/>
<rect width="63.0175" height="63.0175" transform="matrix(1 0 0 -1 189.317 126.035)" fill="#A0CDFF"/>
<path d="M219.565 63.018C219.565 66.9903 218.782 70.9236 217.262 74.5935C215.742 78.2634 213.514 81.598 210.705 84.4068C207.896 87.2156 204.562 89.4437 200.892 90.9638C197.222 92.484 193.289 93.2664 189.316 93.2664L189.316 63.018L219.565 63.018Z" fill="white"/>
<rect width="126.035" height="126.035" transform="matrix(1 0 0 -1 0.000976562 252.336)" fill="#0C45BF"/>
<path d="M63.0179 189.319L126.035 126.301L0.000488281 126.301L63.0179 189.319Z" fill="white"/>
<rect width="126.035" height="126.035" transform="matrix(1 0 0 -1 0.265137 126.036)" fill="#0050A7"/>
<path d="M0.000255159 126.301L126.035 126.301L0.000228882 0.266368L0.000255159 126.301Z" fill="#005EC5"/>
<rect width="49.016" height="49.016" transform="matrix(0.707107 0.707107 0.707107 -0.707107 28.6235 63.0183)" fill="white"/>
<g style="mix-blend-mode:hue">
<path d="M0.0010085 252.335H126.036V126.3H0.00100849L0.0010085 252.335Z" fill="#FF6935"/>
<path d="M63.0179 189.318L126.036 126.3H0.00100849L63.0179 189.318Z" fill="#FF6935"/>
<path d="M63.0179 189.318L0.0010085 252.335H126.036L63.0179 189.318Z" fill="#FF6935"/>
<path d="M126.036 252.335H252.071V126.3H126.036V252.335Z" fill="#FF6935"/>
<path d="M178.971 213.58C178.971 205.749 172.623 199.401 164.792 199.401C156.962 199.401 150.613 205.749 150.613 213.58C150.613 221.41 156.962 227.759 164.792 227.759C172.623 227.759 178.971 221.41 178.971 213.58Z" fill="#FF6935"/>
<path d="M227.494 213.58C227.494 205.749 221.146 199.401 213.315 199.401C205.484 199.401 199.136 205.749 199.136 213.58C199.136 221.41 205.484 227.758 213.315 227.758C221.146 227.758 227.494 221.41 227.494 213.58Z" fill="#FF6935"/>
<path d="M178.971 165.056C178.971 157.225 172.623 150.877 164.792 150.877C156.962 150.877 150.613 157.225 150.613 165.056C150.613 172.887 156.962 179.235 164.792 179.235C172.623 179.235 178.971 172.887 178.971 165.056Z" fill="#FF6935"/>
<path d="M227.494 165.056C227.494 157.225 221.146 150.877 213.315 150.877C205.484 150.877 199.136 157.225 199.136 165.056C199.136 172.887 205.484 179.235 213.315 179.235C221.146 179.235 227.494 172.887 227.494 165.056Z" fill="#FF6935"/>
<path d="M0.264995 126.035H126.3V0.000168266H0.264995V126.035Z" fill="#FF6935"/>
<path d="M2.05937e-05 126.301L126.035 126.301L0 0.265674L2.05937e-05 126.301Z" fill="#FF6935"/>
<path d="M28.6235 63.0176L63.2831 97.6772L97.9426 63.0176L63.2831 28.3581L28.6235 63.0176Z" fill="#FF6935"/>
<path d="M126.3 126.035L252.335 126.035V2.83493e-05L126.3 0.000168266V126.035Z" fill="#FF6935"/>
<path d="M252.335 63.0175C252.335 50.5538 248.639 38.37 241.714 28.0069C234.79 17.6437 224.948 9.56659 213.433 4.79695C201.918 0.0273042 189.247 -1.22065 177.023 1.21089C164.799 3.64243 153.57 9.64427 144.757 18.4574C135.944 27.2706 129.942 38.4992 127.511 50.7234C125.079 62.9476 126.327 75.6183 131.097 87.1332C135.866 98.6482 143.944 108.49 154.307 115.415C164.67 122.339 176.854 126.035 189.317 126.035V63.0175H252.335Z" fill="#FF6935"/>
<path d="M219.565 63.0176C219.565 57.035 217.791 51.1868 214.467 46.2125C211.143 41.2382 206.419 37.3612 200.892 35.0717C195.365 32.7823 189.283 32.1833 183.415 33.3504C177.548 34.5176 172.158 37.3984 167.928 41.6288C163.697 45.8591 160.816 51.2488 159.649 57.1164C158.482 62.984 159.081 69.066 161.371 74.5931C163.66 80.1203 167.537 84.8445 172.511 88.1682C177.486 91.4919 183.334 93.266 189.317 93.266V63.0176H219.565Z" fill="#FF6935"/>
<path d="M189.317 126.035H252.335V63.0175H189.317V126.035Z" fill="#FF6935"/>
<path d="M219.565 63.0176C219.565 66.9899 218.783 70.9232 217.262 74.5931C215.742 78.263 213.514 81.5976 210.705 84.4064C207.897 87.2152 204.562 89.4433 200.892 90.9635C197.222 92.4836 193.289 93.266 189.317 93.266V63.0176H219.565Z" fill="#FF6935"/>
</g>
</svg>
