<svg width="253" height="253" viewBox="0 0 253 253" fill="none" xmlns="http://www.w3.org/2000/svg">
<path d="M189.982 63.6814L252.999 0.663918L126.964 0.663929L189.982 63.6814Z" fill="#005EC5"/>
<rect width="126.035" height="126.035" transform="matrix(-1 0 0 1 126.964 0.664062)" fill="#A0CDFF"/>
<circle r="14.1789" transform="matrix(-1 0 0 1 88.2073 39.4197)" fill="#3B98FF"/>
<circle r="14.1789" transform="matrix(-1 0 0 1 39.6844 39.4201)" fill="white"/>
<circle r="14.1789" transform="matrix(-1 0 0 1 88.2073 87.9436)" fill="white"/>
<circle r="14.1789" transform="matrix(-1 0 0 1 39.6844 87.9436)" fill="#0060C8"/>
<rect width="126.035" height="126.035" transform="matrix(-1 0 0 1 126.7 126.965)" fill="#0050A7"/>
<path d="M0.665268 189.983C0.665268 202.446 4.36118 214.63 11.2856 224.993C18.2101 235.356 28.0521 243.433 39.567 248.203C51.0819 252.973 63.7526 254.221 75.9768 251.789C88.201 249.358 99.4297 243.356 108.243 234.543C117.056 225.729 123.058 214.501 125.489 202.277C127.921 190.052 126.673 177.382 121.903 165.867C117.134 154.352 109.057 144.51 98.6934 137.585C88.3302 130.661 76.1464 126.965 63.6827 126.965L63.6827 189.983L0.665268 189.983Z" fill="#3B98FF"/>
<path d="M33.4354 189.982C33.4354 195.965 35.2094 201.813 38.5331 206.787C41.8569 211.761 46.581 215.638 52.1082 217.928C57.6354 220.217 63.7173 220.816 69.5849 219.649C75.4525 218.482 80.8423 215.601 85.0726 211.371C89.3029 207.141 92.1838 201.751 93.3509 195.883C94.5181 190.016 93.919 183.934 91.6296 178.406C89.3402 172.879 85.4632 168.155 80.4888 164.831C75.5145 161.508 69.6663 159.734 63.6837 159.734L63.6837 189.982L33.4354 189.982Z" fill="#0060C8"/>
<rect width="63.0175" height="63.0175" transform="matrix(-1 0 0 1 63.6831 126.965)" fill="#A0CDFF"/>
<path d="M33.4354 189.982C33.4354 186.01 34.2178 182.076 35.7379 178.406C37.258 174.737 39.4861 171.402 42.2949 168.593C45.1037 165.784 48.4383 163.556 52.1082 162.036C55.7781 160.516 59.7115 159.734 63.6838 159.734L63.6837 189.982L33.4354 189.982Z" fill="white"/>
<rect width="126.035" height="126.035" transform="matrix(-1 0 0 1 252.999 0.663818)" fill="#0C45BF"/>
<path d="M189.982 63.6814L126.965 126.699L253 126.699L189.982 63.6814Z" fill="white"/>
<rect width="126.035" height="126.035" transform="matrix(-1 0 0 1 252.735 126.964)" fill="#0050A7"/>
<path d="M253 126.699L126.965 126.699L253 252.734L253 126.699Z" fill="#005EC5"/>
<rect width="49.016" height="49.016" transform="matrix(-0.707107 -0.707107 -0.707107 0.707107 224.376 189.982)" fill="white"/>
<g style="mix-blend-mode:hue">
<path d="M252.999 0.664597H126.964V126.7H252.999L252.999 0.664597Z" fill="#FF6935"/>
<path d="M189.982 63.6821L126.964 126.7H252.999L189.982 63.6821Z" fill="#FF6935"/>
<path d="M189.982 63.6821L252.999 0.664597H126.964L189.982 63.6821Z" fill="#FF6935"/>
<path d="M126.964 0.664597H0.929077V126.7H126.964V0.664597Z" fill="#FF6935"/>
<path d="M74.0287 39.4204C74.0287 47.2512 80.3768 53.5993 88.2077 53.5993C96.0385 53.5993 102.387 47.2512 102.387 39.4204C102.387 31.5896 96.0385 25.2414 88.2077 25.2414C80.3768 25.2414 74.0287 31.5896 74.0287 39.4204Z" fill="#FF6935"/>
<path d="M25.5058 39.4205C25.5058 47.2513 31.8539 53.5994 39.6847 53.5994C47.5155 53.5994 53.8636 47.2513 53.8636 39.4205C53.8636 31.5897 47.5155 25.2416 39.6847 25.2416C31.8539 25.2416 25.5058 31.5897 25.5058 39.4205Z" fill="#FF6935"/>
<path d="M74.0287 87.9438C74.0287 95.7746 80.3768 102.123 88.2077 102.123C96.0385 102.123 102.387 95.7746 102.387 87.9438C102.387 80.113 96.0385 73.7649 88.2077 73.7649C80.3768 73.7649 74.0287 80.113 74.0287 87.9438Z" fill="#FF6935"/>
<path d="M25.5058 87.9438C25.5058 95.7746 31.8539 102.123 39.6847 102.123C47.5155 102.123 53.8636 95.7746 53.8636 87.9438C53.8636 80.113 47.5155 73.7649 39.6847 73.7649C31.8539 73.7649 25.5058 80.113 25.5058 87.9438Z" fill="#FF6935"/>
<path d="M252.735 126.965H126.7V253H252.735V126.965Z" fill="#FF6935"/>
<path d="M253 126.699L126.965 126.699L253 252.734L253 126.699Z" fill="#FF6935"/>
<path d="M224.377 189.982L189.717 155.323L155.057 189.982L189.717 224.642L224.377 189.982Z" fill="#FF6935"/>
<path d="M126.7 126.965L0.665176 126.965V253L126.7 253V126.965Z" fill="#FF6935"/>
<path d="M0.665176 189.983C0.665176 202.446 4.3611 214.63 11.2856 224.993C18.21 235.356 28.052 243.433 39.5669 248.203C51.0818 252.973 63.7526 254.221 75.9767 251.789C88.2009 249.358 99.4296 243.356 108.243 234.543C117.056 225.729 123.058 214.501 125.489 202.277C127.921 190.052 126.673 177.382 121.903 165.867C117.134 154.352 109.056 144.51 98.6933 137.585C88.3301 130.661 76.1463 126.965 63.6826 126.965V189.983H0.665176Z" fill="#FF6935"/>
<path d="M33.4351 189.982C33.4351 195.965 35.2091 201.813 38.5329 206.788C41.8566 211.762 46.5807 215.639 52.1079 217.928C57.6351 220.218 63.717 220.817 69.5846 219.65C75.4523 218.482 80.842 215.602 85.0723 211.371C89.3026 207.141 92.1835 201.751 93.3506 195.884C94.5178 190.016 93.9188 183.934 91.6293 178.407C89.3399 172.88 85.4629 168.156 80.4886 164.832C75.5143 161.508 69.666 159.734 63.6835 159.734V189.982H33.4351Z" fill="#FF6935"/>
<path d="M63.6826 126.965H0.665176V189.983H63.6826V126.965Z" fill="#FF6935"/>
<path d="M33.4351 189.982C33.4351 186.01 34.2175 182.077 35.7376 178.407C37.2577 174.737 39.4858 171.402 42.2946 168.594C45.1035 165.785 48.438 163.557 52.1079 162.037C55.7778 160.516 59.7112 159.734 63.6835 159.734V189.982H33.4351Z" fill="#FF6935"/>
</g>
</svg>
