<svg width="953" height="160" viewBox="0 0 953 160" fill="none" xmlns="http://www.w3.org/2000/svg">
<rect width="158.67" height="158.67" transform="matrix(1 0 0 -1 158.67 158.674)" fill="#0050A7"/>
<path d="M158.336 159.008L317.007 159.008L158.336 0.337904L158.336 159.008Z" fill="#005EC5"/>
<rect width="61.7083" height="61.7083" transform="matrix(0.707107 0.707107 0.707107 -0.707107 194.372 79.3389)" fill="white"/>
<rect width="158.67" height="158.67" transform="matrix(1 0 0 -1 317.342 158.674)" fill="#4CA0FD"/>
<rect width="79.3352" height="79.3352" transform="matrix(1 0 0 -1 396.677 158.674)" fill="#0050A7"/>
<rect width="79.3352" height="79.3352" transform="matrix(1 0 0 -1 317.341 79.3389)" fill="#A0CDFF"/>
<path d="M317.342 158.674L396.677 158.674L396.677 79.3391C352.861 79.3391 317.342 114.859 317.342 158.674Z" fill="white"/>
<path d="M396.677 79.3389L476.012 79.3389L476.012 0.00362396C432.196 0.00362396 396.677 35.5232 396.677 79.3389Z" fill="#0060C8"/>
<rect width="158.67" height="158.67" transform="matrix(1 0 0 -1 0 158.674)" fill="#0050A7"/>
<path d="M158.67 79.3391C158.67 63.648 154.018 48.3094 145.3 35.2628C136.583 22.2162 124.192 12.0476 109.696 6.04286C95.1989 0.0381622 79.2472 -1.53293 63.8577 1.52823C48.4682 4.5894 34.332 12.1454 23.2368 23.2406C12.1415 34.3358 4.58557 48.472 1.5244 63.8615C-1.53676 79.2511 0.0343391 95.2027 6.03904 109.699C12.0437 124.196 22.2123 136.586 35.2589 145.304C48.3056 154.021 63.6442 158.674 79.3352 158.674L79.3352 79.3391L158.67 79.3391Z" fill="#3B98FF"/>
<path d="M117.415 79.339C117.415 71.8073 115.182 64.4448 110.997 58.1824C106.813 51.92 100.866 47.0391 93.9073 44.1568C86.9489 41.2746 79.2921 40.5204 71.9051 41.9898C64.5181 43.4592 57.7328 47.086 52.4071 52.4117C47.0813 57.7374 43.4545 64.5228 41.9851 71.9098C40.5158 79.2968 41.2699 86.9536 44.1522 93.9119C47.0344 100.87 51.9153 106.818 58.1777 111.002C64.4401 115.187 71.8026 117.42 79.3343 117.42L79.3343 79.339L117.415 79.339Z" fill="#0060C8"/>
<rect width="79.3352" height="79.3352" transform="matrix(1 0 0 -1 79.335 158.674)" fill="#A0CDFF"/>
<path d="M117.415 79.339C117.415 84.3399 116.43 89.2918 114.517 93.9119C112.603 98.5321 109.798 102.73 106.262 106.266C102.725 109.802 98.5275 112.607 93.9073 114.521C89.2871 116.435 84.3352 117.42 79.3343 117.42L79.3343 79.339L117.415 79.339Z" fill="white"/>
<rect width="158.67" height="158.67" transform="matrix(1 0 0 -1 634.684 158.67)" fill="#0050A7"/>
<path d="M634.35 159.005L793.021 159.005L634.35 0.334487L634.35 159.005Z" fill="#005EC5"/>
<rect width="61.7083" height="61.7083" transform="matrix(0.707107 0.707107 0.707107 -0.707107 670.385 79.3354)" fill="white"/>
<rect width="158.67" height="158.67" transform="matrix(1 0 0 -1 793.355 158.67)" fill="#4CA0FD"/>
<rect width="79.3352" height="79.3352" transform="matrix(1 0 0 -1 872.69 158.67)" fill="#0050A7"/>
<rect width="79.3352" height="79.3352" transform="matrix(1 0 0 -1 793.354 79.335)" fill="#A0CDFF"/>
<path d="M793.355 158.67L872.691 158.67L872.691 79.3352C828.875 79.3352 793.355 114.855 793.355 158.67Z" fill="white"/>
<path d="M872.69 79.335L952.026 79.335L952.026 -0.000282288C908.21 -0.000282288 872.69 35.5193 872.69 79.335Z" fill="#0060C8"/>
<rect width="158.67" height="158.67" transform="matrix(1 0 0 -1 476.014 158.67)" fill="#0050A7"/>
<path d="M634.684 79.3352C634.684 63.6441 630.031 48.3055 621.314 35.2589C612.596 22.2122 600.206 12.0437 585.709 6.03896C571.213 0.034256 555.261 -1.53683 539.871 1.52432C524.482 4.58549 510.346 12.1414 499.25 23.2367C488.155 34.3319 480.599 48.4681 477.538 63.8576C474.477 79.2472 476.048 95.1988 482.053 109.695C488.057 124.192 498.226 136.583 511.273 145.3C524.319 154.017 539.658 158.67 555.349 158.67L555.349 79.3352L634.684 79.3352Z" fill="#3B98FF"/>
<path d="M593.429 79.3351C593.429 71.8034 591.196 64.4409 587.011 58.1785C582.827 51.9161 576.879 47.0352 569.921 44.1529C562.963 41.2707 555.306 40.5165 547.919 41.9859C540.532 43.4553 533.746 47.0821 528.421 52.4078C523.095 57.7335 519.468 64.5189 517.999 71.9059C516.529 79.2929 517.284 86.9497 520.166 93.908C523.048 100.866 527.929 106.814 534.191 110.998C540.454 115.183 547.816 117.416 555.348 117.416L555.348 79.3351L593.429 79.3351Z" fill="#0060C8"/>
<rect width="79.3352" height="79.3352" transform="matrix(1 0 0 -1 555.348 158.67)" fill="#A0CDFF"/>
<path d="M593.429 79.3351C593.429 84.336 592.444 89.2878 590.53 93.908C588.616 98.5282 585.811 102.726 582.275 106.262C578.739 109.799 574.541 112.604 569.921 114.517C565.301 116.431 560.349 117.416 555.348 117.416L555.348 79.3351L593.429 79.3351Z" fill="white"/>
<rect width="158.67" height="158.67" transform="matrix(1 0 0 -1 475.023 158.671)" fill="#0C45BF"/>
<path d="M554.357 79.3354L633.692 0.000205994L475.022 0.000205994L554.357 79.3354Z" fill="white"/>
<path d="M554.357 79.3355L475.022 158.671L633.692 158.671L554.357 79.3355Z" fill="#005EC5"/>
<rect width="158.67" height="158.67" transform="matrix(1 0 0 -1 633.693 158.671)" fill="#A0CDFF"/>
<circle r="17.8504" transform="matrix(1 0 0 -1 682.485 109.88)" fill="#3B98FF"/>
<circle r="17.8504" transform="matrix(1 0 0 -1 743.572 109.88)" fill="white"/>
<circle r="17.8504" transform="matrix(1 0 0 -1 682.485 48.7917)" fill="white"/>
<circle r="17.8504" transform="matrix(1 0 0 -1 743.572 48.7917)" fill="#0060C8"/>
<rect width="158.67" height="158.67" transform="matrix(1 0 0 -1 792.365 158.671)" fill="#488AD1"/>
<path fill-rule="evenodd" clip-rule="evenodd" d="M951.025 0.000305176L792.364 0.000305176L792.364 158.671C792.364 158.671 792.364 158.671 792.364 158.671C879.995 158.671 951.034 88.4123 951.034 1.74402C951.034 1.16203 951.031 0.580795 951.025 0.000305176Z" fill="white"/>
<path fill-rule="evenodd" clip-rule="evenodd" d="M871.686 0.000511169L792.364 0.000511169L792.364 80.7275C836.179 80.7272 871.698 45.2077 871.698 1.3923C871.698 0.927422 871.694 0.463486 871.686 0.000511169Z" fill="#0060C8"/>
<g style="mix-blend-mode:hue">
<path d="M158.67 158.682H317.341V0.0118923H158.67V158.682Z" fill="#FF6935"/>
<path d="M158.337 159.017L317.007 159.017L158.337 0.346149L158.337 159.017Z" fill="#FF6935"/>
<path d="M194.372 79.3471L238.006 122.981L281.641 79.3471L238.006 35.7128L194.372 79.3471Z" fill="#FF6935"/>
<path d="M317.342 158.682H476.012V0.0119434H317.342V158.682Z" fill="#FF6935"/>
<path d="M396.677 158.682L476.012 158.682L476.012 79.3473H396.677V158.682Z" fill="#FF6935"/>
<path d="M317.341 79.3472L396.677 79.3473L396.676 0.0120112L317.341 0.0118923L317.341 79.3472Z" fill="#FF6935"/>
<path d="M317.342 158.682L396.677 158.682V79.3473C352.861 79.3473 317.342 114.867 317.342 158.682Z" fill="#FF6935"/>
<path d="M396.677 79.3473H476.012L476.012 0.0119434C432.197 0.0119434 396.677 35.5316 396.677 79.3473Z" fill="#FF6935"/>
<path d="M3.56901e-05 158.682L158.67 158.682V0.0118923L3.56901e-05 0.0120036V158.682Z" fill="#FF6935"/>
<path d="M158.671 79.3472C158.671 63.6562 154.018 48.3176 145.3 35.2709C136.583 22.2243 124.192 12.0557 109.696 6.05104C95.1989 0.0463423 79.2473 -1.52476 63.8577 1.53641C48.4682 4.59758 34.332 12.1535 23.2368 23.2488C12.1416 34.344 4.58561 48.4802 1.52444 63.8697C-1.53673 79.2592 0.0343749 95.2109 6.03907 109.708C12.0438 124.204 22.2124 136.595 35.259 145.312C48.3056 154.03 63.6442 158.682 79.3353 158.682V79.3472H158.671Z" fill="#FF6935"/>
<path d="M117.415 79.3474C117.415 71.8157 115.182 64.4531 110.997 58.1907C106.813 51.9284 100.866 47.0474 93.9072 44.1652C86.9488 41.2829 79.292 40.5288 71.905 41.9982C64.518 43.4675 57.7327 47.0944 52.407 52.4201C47.0813 57.7458 43.4544 64.5312 41.985 71.9182C40.5157 79.3051 41.2698 86.9619 44.1521 93.9203C47.0343 100.879 51.9152 106.826 58.1776 111.01C64.44 115.195 71.8025 117.428 79.3342 117.428V79.3474H117.415Z" fill="#FF6935"/>
<path d="M79.3353 158.682L158.67 158.682L158.671 79.3472H79.3353V158.682Z" fill="#FF6935"/>
<path d="M117.415 79.3474C117.415 84.3482 116.43 89.3001 114.516 93.9203C112.603 98.5405 109.798 102.738 106.262 106.275C102.725 109.811 98.5274 112.616 93.9072 114.53C89.287 116.443 84.3351 117.428 79.3342 117.428V79.3474H117.415Z" fill="#FF6935"/>
<path d="M634.684 158.679H793.354V0.00850269L634.684 0.00850269V158.679Z" fill="#FF6935"/>
<path d="M634.35 159.013L793.021 159.013L634.35 0.342759L634.35 159.013Z" fill="#FF6935"/>
<path d="M670.385 79.3437L714.02 122.978L757.654 79.3438L714.02 35.7094L670.385 79.3437Z" fill="#FF6935"/>
<path d="M793.356 158.679H952.026V0.00830078L793.356 0.00830078V158.679Z" fill="#FF6935"/>
<path d="M872.691 158.679L952.026 158.679L952.026 79.3436H872.691V158.679Z" fill="#FF6935"/>
<path d="M793.355 79.3436L872.691 79.3436L872.69 0.00837951L793.354 0.00850269L793.355 79.3436Z" fill="#FF6935"/>
<path d="M793.356 158.679L872.691 158.679V79.3436C828.875 79.3436 793.356 114.863 793.356 158.679Z" fill="#FF6935"/>
<path d="M872.691 79.3436H952.026L952.026 0.00830078C908.211 0.00830078 872.691 35.528 872.691 79.3436Z" fill="#FF6935"/>
<path d="M476.014 158.679L634.684 158.679V0.00850269L476.014 0.00837194V158.679Z" fill="#FF6935"/>
<path d="M634.684 79.3436C634.684 63.6526 630.031 48.3139 621.314 35.2673C612.596 22.2207 600.206 12.0521 585.709 6.04741C571.213 0.0427106 555.261 -1.52839 539.871 1.53278C524.482 4.59394 510.346 12.1499 499.25 23.2451C488.155 34.3404 480.599 48.4765 477.538 63.8661C474.477 79.2556 476.048 95.2073 482.053 109.704C488.057 124.201 498.226 136.591 511.273 145.308C524.319 154.026 539.658 158.679 555.349 158.679V79.3436H634.684Z" fill="#FF6935"/>
<path d="M593.429 79.3437C593.429 71.812 591.195 64.4495 587.011 58.1871C582.827 51.9247 576.879 47.0438 569.921 44.1616C562.962 41.2793 555.306 40.5252 547.919 41.9945C540.532 43.4639 533.746 47.0907 528.421 52.4165C523.095 57.7422 519.468 64.5275 517.999 71.9145C516.529 79.3015 517.283 86.9583 520.166 93.9167C523.048 100.875 527.929 106.822 534.191 111.007C540.454 115.191 547.816 117.425 555.348 117.425V79.3437H593.429Z" fill="#FF6935"/>
<path d="M555.349 158.679L634.684 158.679L634.684 79.3436H555.349V158.679Z" fill="#FF6935"/>
<path d="M593.429 79.3437C593.429 84.3446 592.444 89.2965 590.53 93.9167C588.616 98.5369 585.811 102.735 582.275 106.271C578.739 109.807 574.541 112.612 569.921 114.526C565.301 116.44 560.349 117.425 555.348 117.425V79.3437H593.429Z" fill="#FF6935"/>
</g>
</svg>
