<svg width="34" height="32" viewBox="0 0 34 32" fill="none" xmlns="http://www.w3.org/2000/svg">
<g clip-path="url(#clip0)">
<path d="M20.8094 3.57C16.0494 -1.19 8.33138 -1.19 3.57038 3.57C-1.19062 8.33 -1.18963 16.05 3.57038 20.809C8.33038 25.569 16.0504 25.569 20.8094 20.809C25.5694 16.05 25.5694 8.331 20.8094 3.57ZM18.6544 18.654C15.0844 22.224 9.29338 22.224 5.72438 18.654C2.15438 15.084 2.15438 9.295 5.72438 5.724C9.29438 2.153 15.0854 2.154 18.6544 5.724C22.2244 9.293 22.2244 15.083 18.6544 18.654Z" fill="white" fill-opacity="0.21"/>
<path d="M24.0225 21.907L26.1765 19.751L28.3335 21.906L26.1795 24.062L24.0225 21.907Z" fill="white" fill-opacity="0.21"/>
<path d="M28.3402 28.3641C27.7442 28.9611 26.7812 28.9611 26.1852 28.3641L19.7212 21.9001L18.8872 21.0481L23.1872 16.7481L21.8752 15.4341L15.4092 21.9001L24.0292 30.5191C25.8122 32.3021 28.7122 32.3021 30.4932 30.5191C32.2762 28.7381 32.2762 25.8381 30.4932 24.0551L28.3382 26.2101C28.9342 26.8061 28.9322 27.7721 28.3382 28.3651L28.3402 28.3641Z" fill="white" fill-opacity="0.21"/>
</g>
<defs>
<clipPath id="clip0">
<rect width="34" height="32" fill="white"/>
</clipPath>
</defs>
</svg>
