<svg width="99" height="221" viewBox="0 0 99 221" fill="none" xmlns="http://www.w3.org/2000/svg">
<path d="M95.0769 198.439C55.4403 223.241 -57.0897 222.214 -95.0764 198.439C-80.7507 191.278 -70.6124 183.432 -59.0697 181.389C-55.2101 180.571 -51.508 179.135 -48.1064 177.136C-41.4165 172.54 -35.1354 167.375 -29.3331 161.699V137.206C-18.6997 147.913 -18.0764 158.033 -6.23309 158.033H6.23359C18.0769 158.033 18.7003 147.913 29.3336 137.206V161.699C57.4642 188.745 54.1716 175.266 77.6603 188.943C81.5469 191.165 91.5423 196.672 95.0769 198.439Z" fill="#CAD9FC"/>
<path d="M84.0769 198.439C62.4436 211.969 20.5189 216.252 -5.49975 216.663C-31.6577 216.248 -73.5421 211.896 -95.0764 198.439C-91.8497 196.826 -82.1037 191.473 -77.6597 188.943C-54.1491 175.266 -57.3941 188.679 -29.3331 161.699V137.206C-18.6997 147.913 -18.0764 158.033 -6.23309 158.033H6.23359C11.1504 158.166 15.764 155.663 18.3336 151.469V158.509C18.3299 160.555 19.1806 162.509 20.6803 163.899C47.6633 188.833 42.8599 175.083 66.6603 188.943C70.5469 191.165 80.5423 196.672 84.0769 198.439Z" fill="#E8EDFC"/>
<path d="M58.6667 54.6327C58.63 62.7362 56.6028 70.7065 52.7633 77.8427L52.7267 77.8794C51.9715 77.3779 51.0543 77.1814 50.16 77.3294C48.156 77.092 46.14 77.6625 44.5575 78.9147C42.975 80.167 41.9564 81.9978 41.7267 84.0027C41.69 83.1227 41.6533 82.2794 41.58 81.4361C39.4533 47.9594 27.5733 41.4327 27.5733 41.4327C20.3793 53.364 4.00034 60.1584 -8.32333 61.2327H-27.4633C-36.08 61.2327 -42.2033 64.6794 -42.57 72.5627C-42.68 75.1294 -42.5333 78.9794 -42.3133 82.8294C-42.46 81.7294 -43.56 77.3294 -50.16 77.3294C-53.2488 69.0046 -54.8859 60.2114 -55 51.3327C-55 26.9824 -32.0687 4.03271 -4.73 4.03271C22.77 4.03271 33.55 22.7327 33.55 22.7327H34.7233C34.7233 22.7327 58.6667 23.8327 58.6667 54.6327Z" fill="#CAD9FC"/>
<path d="M47.6667 54.6328C47.63 62.7363 45.6028 70.7066 41.7633 77.8428L41.36 78.3562C38.72 47.5562 27.5733 41.4328 27.5733 41.4328C20.3793 53.3642 4.00034 60.1585 -8.32333 61.2328H-27.4633C-36.08 61.2328 -42.2033 64.6795 -42.57 72.5628C-42.68 75.1295 -42.5333 78.9795 -42.3133 82.8295C-42.46 81.7295 -43.56 77.3295 -50.16 77.3295C-53.2488 69.0047 -54.8859 60.2115 -55 51.3328C-55 28.7462 -35.1633 7.11284 -10.12 4.32617C3.01901 5.1185 15.065 11.9053 22.55 22.7328H23.7234C23.7234 22.7328 47.6667 23.8328 47.6667 54.6328Z" fill="#E8EDFC"/>
<path d="M54.4868 95.8828C53.7097 103.935 48.44 110.852 40.8835 113.739C40.8835 104.25 39.6258 103.946 41.9102 92.1794C41.9102 86.9984 41.7268 84.5564 41.7268 83.9294C42.2554 79.7907 46.0157 76.8478 50.1602 77.3294C56.6648 76.3541 55.7848 89.4661 54.4868 95.8828Z" fill="#E8EDFC"/>
<path d="M95.077 198.439C77.7593 209.245 47.139 213.982 26.8403 215.636C41.9983 210.931 49.174 194.219 51.077 178.676C53.6173 179.911 56.3028 180.823 59.0703 181.389C70.6973 183.446 80.3003 191.054 95.077 198.439Z" fill="#CAD9FC"/>
<path d="M84.077 203.17C82.8441 203.945 81.5713 204.655 80.2637 205.296C62.957 210.958 45.0097 214.432 26.8403 215.636C41.2503 211.163 47.227 196.533 49.647 186.45C60.1593 188.745 70.3453 196.302 84.077 203.17Z" fill="#E8EDFC"/>
<path d="M41.9104 92.1793C41.0781 95.7642 40.6234 99.4264 40.5538 103.106C40.5538 114.436 43.6704 124.116 31.2038 135.409C18.7371 146.703 18.7371 158.033 6.23376 158.033H-6.23292C-18.7362 158.033 -18.7362 146.739 -31.2029 135.409C-46.1629 121.843 -38.5362 111.737 -41.2862 95.3693C-42.1031 87.794 -42.5314 80.1818 -42.5696 72.5626C-42.2029 64.6793 -36.0796 61.2326 -27.4629 61.2326H-8.32291C4.14375 60.1326 20.4348 53.2686 27.5738 41.4326C27.5738 41.4326 39.4538 47.9593 41.5804 81.436C41.8224 85.0183 41.9104 88.6153 41.9104 92.1793Z" fill="#CAD9FC"/>
<path d="M30.9104 92.1794C30.0781 95.7643 29.6234 99.4265 29.5538 103.106C29.5538 114.436 32.6704 124.116 20.2038 135.409C7.73709 146.703 7.7371 158.033 -4.76624 158.033H-6.23291C-18.7362 158.033 -18.7362 146.739 -31.2029 135.409C-46.1629 121.843 -38.5362 111.737 -41.2862 95.3694C-42.1031 87.7941 -42.5314 80.1819 -42.5696 72.5628C-42.2029 64.6794 -36.0796 61.2328 -27.4629 61.2328H-8.32291C-8.32291 61.2328 10.1938 59.6194 22.2571 47.9961C29.3338 59.9091 30.9104 78.2791 30.9104 92.1794Z" fill="#E8EDFC"/>
<path d="M7.06594 216.505C-30.0114 215.94 -66.2087 209.619 -84.0764 198.439C-79.5371 196.17 -69.6371 190.578 -64.4707 187.703C-43.5267 176.051 -45.6314 187.938 -18.3331 161.699V137.213C-18.9307 136.612 -19.5394 136.011 -20.2031 135.409C-29.2524 127.211 -29.8831 113.274 -29.8831 113.739C-37.4278 110.836 -42.691 103.927 -43.4864 95.8827C-44.7661 89.4697 -45.6497 76.3541 -39.1597 77.3294C-42.8785 67.6583 -44.4438 57.2927 -43.7467 46.9547C-41.3524 25.5157 -21.8567 6.86705 1.02694 4.34438C-0.885391 4.14254 -2.80679 4.03852 -4.72973 4.03271C-29.8134 4.03271 -52.1727 23.8914 -54.7467 46.9547C-55.4438 57.2927 -53.8785 67.6583 -50.1597 77.3294C-56.6497 76.3541 -55.7661 89.4697 -54.4864 95.8827C-53.691 103.927 -48.4278 110.836 -40.8831 113.739C-40.8831 113.274 -40.8831 112.867 -40.8611 112.434C-41.7591 121.237 -38.1206 129.892 -31.2031 135.409C-30.5394 136.011 -29.9307 136.612 -29.3331 137.213V161.699C-56.6314 187.938 -54.5267 176.051 -75.4707 187.703C-80.6371 190.578 -90.5371 196.166 -95.0764 198.439C-75.4414 210.726 -33.6817 217.15 7.06594 216.505ZM-40.8537 112.122C-40.8281 110.894 -40.7877 109.735 -40.7327 108.657C-40.7767 109.834 -40.8244 110.989 -40.8537 112.122Z" fill="white"/>
<path d="M-97.02 201.549C-79.1193 212.751 -47.96 217.602 -26.829 219.299H-26.796C7.8137 222.071 67.969 219.728 97.02 201.545C98.1455 200.842 98.8029 199.585 98.739 198.26C98.6751 196.934 97.8999 195.746 96.712 195.154C93.4487 193.53 84.0107 188.345 79.508 185.771C54.9414 171.449 60.0747 185.584 33 160.105V138.79C40.0107 132.146 44.0624 126.382 44.5134 116.207C52.1241 112.352 57.255 104.894 58.135 96.4074C58.8684 92.7407 60.3534 82.8407 57.035 77.3077C68.5264 53.1774 61.468 22.3077 35.563 19.1507C17.3397 -6.0503 -26.2093 -6.68096 -48.0883 22.0107C-48.7354 22.7835 -49.0217 23.7959 -48.8754 24.7931C-48.729 25.7904 -48.1638 26.6777 -47.322 27.232C-45.6995 28.2942 -43.5397 27.9796 -42.2876 26.4987C-33.2976 14.8239 -19.4637 7.89949 -4.72997 7.69971C20.163 7.69971 29.9751 23.8917 30.3747 24.5664C31.0297 25.7008 32.2401 26.3997 33.55 26.3997H34.5364C35.3724 26.4474 55 27.8664 55 54.633C54.9609 61.2308 53.4739 67.7395 50.644 73.6997C50.4071 73.6869 50.1696 73.6869 49.9327 73.6997C48.1227 73.7007 46.3308 74.0596 44.66 74.7557C41.404 45.789 30.6424 38.9727 29.3481 38.2577C27.6309 37.3077 25.4702 37.8782 24.4457 39.552C14.784 55.3187 -8.41496 57.592 -8.3233 57.5994H-27.4633C-38.786 57.5994 -45.7966 63.1434 -46.2293 72.4017C-46.2586 72.948 -46.277 73.5677 -46.2806 74.235C-46.6422 74.1201 -47.0093 74.0234 -47.3806 73.9454C-49.8956 66.6669 -51.23 59.033 -51.3333 51.333C-51.3333 49.308 -52.9749 47.6664 -55 47.6664C-57.025 47.6664 -58.6666 49.308 -58.6666 51.333C-58.573 59.3273 -57.265 67.2609 -54.7873 74.862C-60.885 79.174 -58.96 92.1174 -58.1203 96.4037C-57.2439 104.887 -52.1189 112.345 -44.5133 116.204C-44.066 126.342 -40.0583 132.106 -33 138.794V160.123C-38.2115 165.221 -43.8671 169.845 -49.8996 173.939C-52.9394 175.742 -56.252 177.038 -59.708 177.778C-70.3413 179.659 -76.208 184.209 -95.007 194.278C-96.5763 195.114 -98.6186 195.745 -98.7396 198.253C-98.8073 199.582 -98.1491 200.844 -97.02 201.549ZM75.8414 192.133C79.6217 194.293 83.457 196.401 87.3144 198.487C72.7636 204.601 57.4094 208.591 41.7231 210.334C48.1394 202.764 52.3775 193.592 53.9844 183.799C60.3277 185.951 63.25 184.8 75.8414 192.133ZM50.1747 81.0037C50.3104 81.0037 50.5964 81.0367 50.809 81.044C51.909 82.4924 52.1584 88.8834 50.908 95.1717C50.8783 95.3207 50.8575 95.4713 50.8457 95.6227C50.321 100.339 48.0008 104.672 44.3667 107.723C43.9417 102.891 44.3008 98.0224 45.43 93.3054C45.5116 92.9961 45.5596 92.6789 45.573 92.3594C45.573 89.019 45.4777 86.3094 45.386 84.2927C45.5107 83.255 46.2257 80.9964 50.1747 80.9964V81.0037ZM-50.8273 95.6337C-50.8388 95.475 -50.8596 95.317 -50.8896 95.1607C-52.228 88.4984 -51.843 81.7114 -50.71 80.956C-50.535 80.9805 -50.3586 80.994 -50.182 80.9964C-46.673 80.9964 -46.057 82.5584 -45.9506 83.3687C-45.7746 85.202 -45.771 86.9034 -44.9753 95.3037C-44.2256 99.391 -44.0209 103.56 -44.3666 107.701C-47.9895 104.657 -50.3028 100.336 -50.8273 95.6337ZM-37.2313 113.6C-36.7173 107.466 -36.8476 101.294 -37.62 95.1864C-38.4418 87.7316 -38.8714 80.2389 -38.907 72.739C-38.8153 70.803 -38.5403 64.907 -27.4633 64.907H-8.0043C-6.97763 64.819 15.6457 62.6594 28.1234 47.0394C36.498 57.6727 38.2177 78.2684 38.2434 91.8497C37.3946 95.5509 36.9399 99.3315 36.8867 103.128C36.8867 114.678 39.7944 122.705 28.7357 132.718C15.9977 144.276 16.2654 154.366 6.23338 154.366C-11.1576 154.366 -11 155.899 -17.9666 145.658C-20.5958 141.649 -23.604 137.901 -26.95 134.467C-33.704 127.721 -37.312 124.3 -37.2313 113.593V113.6ZM-33 170.049V176.366C-33 178.391 -31.3583 180.033 -29.3333 180.033C-27.3083 180.033 -25.6666 178.391 -25.6666 176.366V147.422C-20.262 155.1 -16.819 161.7 -6.2333 161.7C13.9774 161.7 14.5017 163.317 25.6667 147.422V176.366C25.6667 178.391 27.3083 180.033 29.3334 180.033C31.3584 180.033 33 178.391 33 176.366V170.049C37.3031 174.099 42.0241 177.68 47.0837 180.733C45.738 189.104 41.14 207.045 26.1507 211.999C8.75758 213.376 -8.71717 213.376 -26.1103 211.999C-41.1436 207.06 -45.738 189.108 -47.0836 180.73C-42.025 177.677 -37.3041 174.096 -33 170.049ZM-75.8156 192.111C-63.2903 184.814 -60.2946 185.94 -53.9843 183.791C-52.3781 193.585 -48.1399 202.757 -41.723 210.327C-57.4093 208.583 -72.7635 204.594 -87.3143 198.48C-83.457 196.394 -79.6143 194.282 -75.8156 192.111Z" fill="#428DFF"/>
</svg>
