<svg width="30" height="32" viewBox="0 0 30 32" fill="none" xmlns="http://www.w3.org/2000/svg">
<path d="M23.2157 14.1176H26.1961V17.098H23.2157V14.1176Z" fill="white"/>
<path fill-rule="evenodd" clip-rule="evenodd" d="M26.2587 23.2727H27.7177C28.5244 23.2727 29.1765 23.9229 29.1765 24.7273C29.1765 25.5316 28.5244 26.1818 27.7177 26.1818H20.4236C20.4236 29.3905 17.8064 32 14.5882 32C11.3701 32 8.75291 29.3905 8.75291 26.1819H1.45879C0.652114 26.1819 0 25.5317 0 24.7273C0 23.9229 0.652114 23.2727 1.45879 23.2727H2.91774V11.6364C2.91774 5.22036 8.15334 0 14.5882 0C21.0231 0 26.2587 5.22036 26.2587 11.6364V11.9216H23.3411V11.6364C23.3411 6.8233 19.4154 2.90916 14.5882 2.90916C9.76103 2.90916 5.83532 6.8233 5.83532 11.6364V23.2727H23.3411V19.2941H26.2587V23.2727ZM11.6706 26.1819C11.6706 27.7862 12.9792 29.0909 14.5882 29.0909C16.1973 29.0909 17.5058 27.7862 17.506 26.1819H11.6706Z" fill="white"/>
<path d="M0 23.6863C0 23.4264 0.21069 23.2157 0.470588 23.2157H28.7059C28.9658 23.2157 29.1765 23.4264 29.1765 23.6863V25.7255C29.1765 25.9854 28.9658 26.1961 28.7059 26.1961H0.470588C0.210689 26.1961 0 25.9854 0 25.7255V23.6863Z" fill="white"/>
</svg>
