<svg width="24" height="47" viewBox="0 0 24 47" fill="none" xmlns="http://www.w3.org/2000/svg">
<path fill-rule="evenodd" clip-rule="evenodd" d="M5.80324 10.1639L2.07014 30.0356L0.0290623 40.2533C-0.0983925 40.8869 0.194609 41.5307 0.755608 41.8519L7.59379 45.764V42.3048L3.18293 39.7809L8.72937 12.0141H15.2703L20.8167 39.7809L16.2188 42.4118V45.871L23.2439 41.8519C23.8049 41.5307 24.0979 40.8869 23.9705 40.2533L18.0485 10.6082L20.9222 1.97699C21.076 1.51934 20.9984 1.01488 20.7171 0.623299C20.4344 0.231715 19.9817 0 19.4998 0H4.4999C4.01797 0 3.56529 0.231715 3.28258 0.623209C3.00132 1.01479 2.92369 1.51934 3.0775 1.9769L5.80324 10.1639ZM8.58088 9.01068L6.58142 3.00353H17.4182L15.4187 9.01068H8.58088Z" fill="#FF6935"/>
<path d="M13.6875 43.1761H10.0313V46.8367H13.6875V43.1761Z" fill="#FF6935"/>
</svg>
