<svg width="75" height="75" viewBox="0 0 75 75" fill="none" xmlns="http://www.w3.org/2000/svg">
<g clip-path="url(#clip0)">
<path d="M5.17216 64.667H15.517C16.2312 64.667 16.8102 64.0879 16.8102 63.3738V62.8812L26.4645 66.89C31.727 69.0392 37.611 69.1045 42.9205 67.072L62.8961 59.4548C64.0795 59.0051 65.0316 58.0975 65.538 56.9371C66.0604 55.7601 66.0873 54.4228 65.613 53.2258C65.2262 52.2485 64.5235 51.4291 63.6166 50.8981C73.1575 39.3504 71.5307 22.2546 59.9831 12.7131C57.134 10.3591 53.8336 8.61214 50.2848 7.57931C49.4568 3.37532 45.3775 0.638467 41.1735 1.46587C38.0836 2.07413 35.6678 4.48998 35.0595 7.57988C20.676 11.7667 12.4094 26.8214 16.5968 41.2049C17.0025 42.5994 17.5198 43.9589 18.1435 45.2704H16.8102C16.8102 44.5563 16.2312 43.9772 15.517 43.9772H5.17216C4.45805 43.9772 3.87897 44.5563 3.87897 45.2704H0V47.8568H3.87955V60.788H0V63.3738H3.87955C3.87955 64.0879 4.45805 64.667 5.17216 64.667ZM34.9136 10.3265V16.5177C34.9068 18.485 35.8755 20.3275 37.4994 21.4375V22.2781L32.0532 23.6399C29.1727 24.3569 27.1523 26.9444 27.1551 29.9125V41.3915H29.7409V29.9125C29.7415 28.1329 30.9523 26.5816 32.6792 26.1496L39.1056 24.5423C39.6818 24.3987 40.0858 23.8814 40.0858 23.288V20.7017C40.0864 20.2119 39.8094 19.7638 39.3705 19.5447C38.2204 18.9753 37.4943 17.8012 37.4994 16.5177V9.06418C37.4994 6.20773 39.8151 3.89202 42.6722 3.89202C45.5286 3.89202 47.8443 6.20773 47.8443 9.06418V16.5177C47.8495 17.8012 47.1239 18.9753 45.9732 19.5447C45.5349 19.7638 45.2579 20.2119 45.2579 20.7017V23.288C45.2585 23.8814 45.6625 24.3987 46.2381 24.5423L52.6651 26.1496C54.3915 26.5816 55.6028 28.1329 55.6028 29.9125V41.3915H58.1892V29.9125C58.1921 26.9444 56.171 24.3569 53.2911 23.6399L47.8443 22.2781V21.4375C49.4665 20.3286 50.4353 18.489 50.4307 16.524V10.3259C63.2904 14.59 70.2587 28.4716 65.9946 41.3314C64.8931 44.653 63.0936 47.7012 60.7172 50.2698C60.2692 50.3133 59.8303 50.4214 59.4137 50.5919L51.0292 54.1516C51.0538 53.9943 51.0698 53.8352 51.0773 53.6761C51.0773 51.1762 49.0511 49.15 46.5511 49.15H36.521C35.5059 49.1483 34.5051 48.9119 33.597 48.4593C29.6917 46.5178 25.4133 45.4398 21.0543 45.299C14.6049 33.3754 19.0435 18.481 30.9677 12.0322C32.2306 11.3496 33.5506 10.7785 34.9136 10.3265ZM20.0884 47.8568C24.3759 47.8619 28.6039 48.8599 32.4411 50.7727C33.708 51.405 35.1047 51.7352 36.521 51.7363H46.5511C47.6223 51.7432 48.4852 52.617 48.4783 53.6881C48.4726 54.5859 47.8517 55.3618 46.978 55.565C46.8086 55.5804 46.6433 55.6153 46.471 55.6153H31.0341V58.2017H46.471H46.5511C46.5774 58.2017 46.6021 58.1937 46.6289 58.1937C47.6549 58.1776 48.6689 57.9625 49.6136 57.5614L60.4248 52.9723C60.9398 52.7526 61.5223 52.7526 62.0373 52.9723C62.5729 53.1983 62.9934 53.6332 63.2011 54.1762C63.4209 54.7307 63.4083 55.3498 63.1662 55.8951C62.9379 56.4227 62.5059 56.8364 61.9686 57.0418L41.9929 64.6584C37.2992 66.4563 32.0972 66.4002 27.4435 64.5017L16.8102 60.0808V47.8568H20.0884ZM6.46534 46.5636H14.2239V62.0807H6.46534V46.5636Z" fill="#4A6FE1"/>
<path d="M55.7275 64.4455L57.7308 63.6816L58.6521 66.0981L56.6488 66.862L55.7275 64.4455Z" fill="#4A6FE1"/>
<path d="M42.9205 72.1008L54.7703 67.5752L53.8496 65.1582L41.9981 69.6763C37.3049 71.4753 32.1024 71.4193 27.4486 69.5195L26.3586 69.0669L25.3652 71.4553L26.4644 71.9119C31.727 74.0617 37.611 74.1269 42.9205 72.0945V72.1008Z" fill="#4A6FE1"/>
<path d="M32.3273 32.3398H34.9136V43.9779H32.3273V32.3398Z" fill="#4A6FE1"/>
<path d="M50.4307 32.3398H53.017V43.9779H50.4307V32.3398Z" fill="#4A6FE1"/>
<path d="M64.4862 13.4181C71.993 21.5268 74.3928 33.1254 70.7204 43.547L73.1603 44.4082C77.1502 33.0797 74.5416 20.474 66.3836 11.6592L64.4862 13.4181Z" fill="#4A6FE1"/>
<path d="M60.0214 9.47287C60.8139 10.0434 61.5966 10.6676 62.3491 11.3274L64.0583 9.38761C63.2452 8.67121 62.3966 7.99372 61.5331 7.37402L60.0214 9.47287Z" fill="#4A6FE1"/>
<path d="M10.4547 30.9409L13.0331 31.1532C13.7643 22.0849 18.6287 13.8583 26.2224 8.84869L24.7913 6.69434C16.5378 12.1417 11.2506 21.0841 10.4547 30.9409Z" fill="#4A6FE1"/>
</g>
<defs>
<clipPath id="clip0">
<rect width="75" height="75" fill="white"/>
</clipPath>
</defs>
</svg>
